<?xml version="1.0" standalone="no"?>
<!DOCTYPE svg PUBLIC "-//W3C//DTD SVG 20010904//EN"
 "http://www.w3.org/TR/2001/REC-SVG-20010904/DTD/svg10.dtd">
<svg version="1.0" xmlns="http://www.w3.org/2000/svg"
 width="1254.000000pt" height="1254.000000pt" viewBox="0 0 1254.000000 1254.000000"
 preserveAspectRatio="xMidYMid meet">

<g transform="translate(0.000000,1254.000000) scale(0.100000,-0.100000)"
fill="#000000" stroke="none">
<path d="M1620 11770 c-20 -4 92 -8 259 -9 162 0 291 2 287 6 -9 10 -504 13
-546 3z"/>
<path d="M2395 11770 c-56 -5 -40 -7 79 -8 82 -1 147 0 145 3 -9 8 -153 12
-224 5z"/>
<path d="M1307 11763 c-9 -9 -9 -85 1 -100 4 -6 52 -16 107 -23 483 -56 858
-269 1108 -629 l32 -46 3 -945 c1 -520 0 -1118 -4 -1330 l-7 -385 -37 77 c-20
43 -39 81 -43 84 -10 10 13 -58 25 -72 15 -20 48 -127 47 -153 -1 -22 -3 -20
-15 14 l-14 40 6 -40 c3 -22 9 -44 14 -50 7 -9 15 -74 11 -102 -2 -23 -29 -14
-35 12 -4 14 -11 23 -16 20 -5 -3 -16 9 -25 27 l-15 33 5 -35 c4 -32 3 -33
-10 -16 -8 10 -17 38 -21 62 -8 53 -22 59 -18 8 l3 -37 -22 19 c-21 19 51 -62
126 -140 20 -21 37 -43 37 -49 0 -6 -109 97 -242 229 -292 289 -451 420 -640
529 -71 40 -58 23 15 -21 128 -77 249 -172 240 -188 -3 -6 -3 -8 2 -4 8 8 81
-41 116 -78 13 -14 17 -24 10 -24 -19 0 -2 -20 27 -32 17 -6 22 -12 14 -15 -9
-3 -3 -12 17 -24 17 -10 31 -23 31 -28 0 -5 13 -14 30 -21 16 -7 27 -16 25
-21 -3 -4 5 -17 17 -29 l23 -21 -27 5 c-16 3 -39 8 -53 11 -46 10 -26 -2 58
-34 113 -43 125 -53 57 -46 l-55 5 46 -15 c53 -18 65 -47 15 -39 l-31 5 29
-16 c20 -12 25 -20 17 -28 -7 -7 -6 -14 6 -22 15 -11 13 -13 -15 -20 -24 -5
-46 0 -89 21 -65 30 -193 112 -193 123 0 4 -21 25 -47 46 -26 22 -41 30 -33
19 26 -37 132 -121 209 -167 88 -51 127 -67 271 -112 135 -41 150 -49 150 -81
0 -21 -4 -25 -17 -19 -157 60 -469 101 -703 92 -550 -21 -1017 -287 -1320
-752 -204 -314 -311 -746 -281 -1133 35 -448 193 -831 487 -1182 84 -100 251
-263 349 -341 181 -144 478 -319 650 -384 281 -107 382 -134 693 -185 l74 -12
-34 -36 -33 -36 40 34 c22 18 46 46 54 62 17 36 156 168 177 168 8 0 13 4 10
9 -11 17 34 58 114 105 44 25 89 55 100 66 11 11 25 20 32 20 6 0 9 3 5 6 -3
4 -23 -4 -44 -17 -37 -23 -45 -24 -238 -24 -112 0 -237 6 -285 13 -547 84
-1050 322 -1459 691 -92 84 -230 246 -281 331 -19 30 -39 62 -45 70 -58 72
-162 336 -199 507 -99 454 22 968 319 1349 164 210 415 382 666 458 325 97
619 84 1016 -46 l151 -49 7 -112 c11 -176 -1 -1600 -14 -1687 -49 -330 -188
-569 -407 -703 -77 -46 -217 -93 -317 -106 -43 -5 -82 -12 -85 -16 -10 -10 -7
-94 4 -105 6 -6 397 -10 1001 -10 978 -1 992 0 1025 20 18 11 28 20 22 20 -6
0 -14 17 -18 39 l-6 38 -86 17 c-123 25 -255 78 -323 130 -150 116 -250 268
-306 468 -51 182 -56 241 -67 888 -6 338 -7 677 -3 752 l7 137 86 -56 c284
-182 548 -421 847 -768 144 -168 345 -480 359 -559 2 -13 9 -35 16 -48 9 -19
7 -18 -13 6 -14 15 -27 24 -30 19 -4 -5 14 -30 39 -54 57 -56 102 -134 56 -98
-10 8 -8 4 4 -7 45 -43 173 -346 219 -516 11 -41 11 -48 -1 -48 -8 0 -14 -4
-14 -10 0 -5 7 -10 15 -10 8 0 15 -5 15 -11 0 -5 -4 -7 -10 -4 -5 3 -10 1 -10
-4 0 -6 7 -11 15 -11 19 0 19 -11 0 -36 -14 -18 -14 -18 -15 6 0 14 -7 35 -15
47 -9 12 -34 68 -56 125 -100 254 -141 327 -241 432 -44 47 -91 84 -138 109
-38 21 -70 36 -70 33 0 -3 18 -15 40 -26 22 -11 40 -25 40 -31 0 -6 -22 2 -50
17 -27 15 -50 34 -50 43 0 13 -2 13 -9 3 -7 -12 -14 -11 -40 2 -17 9 -31 22
-31 29 0 9 -2 9 -8 -1 -9 -13 -47 -4 -102 25 -14 7 -34 13 -45 12 -18 0 -17
-1 4 -10 42 -17 16 -20 -64 -7 -61 9 -79 10 -83 0 -5 -17 -71 -15 -106 3 -15
8 -47 14 -70 14 -24 -1 -31 -3 -16 -6 51 -8 70 -14 70 -22 0 -10 -97 4 -194
29 -44 11 -84 20 -90 20 -19 0 48 -36 69 -37 33 -2 247 -98 368 -164 281 -155
503 -316 687 -499 69 -69 94 -95 56 -59 -131 121 -187 169 -299 252 -217 162
-471 316 -651 394 -190 83 -180 83 -106 6 36 -37 67 -70 69 -73 2 -3 1 3 -2
13 -4 10 -3 16 2 12 5 -3 12 -1 16 5 3 5 -3 10 -15 10 -13 0 -19 4 -14 12 4 6
3 8 -3 5 -6 -4 -21 5 -34 19 l-24 26 35 -15 c82 -34 91 -40 78 -50 -9 -6 -8
-7 5 -3 20 6 89 -23 81 -36 -3 -4 1 -8 8 -9 7 0 2 -5 -10 -10 -19 -7 -30 -4
-54 16 -16 14 -35 25 -43 25 -22 0 -27 -32 -7 -54 10 -12 30 -40 44 -62 19
-30 44 -51 88 -73 39 -19 57 -24 48 -14 -12 15 -11 15 11 4 16 -9 21 -9 16 -2
-8 14 30 6 83 -16 19 -8 63 -17 100 -20 44 -4 60 -9 47 -13 -18 -7 -17 -8 7
-15 18 -5 25 -12 21 -22 -4 -9 2 -16 16 -20 11 -3 21 -9 21 -14 0 -5 6 -9 13
-9 6 -1 26 -7 42 -15 30 -15 30 -15 -23 -12 -28 1 -52 -1 -52 -5 0 -5 12 -8
28 -8 34 -1 97 -28 67 -29 -17 -1 -17 -3 -5 -11 10 -6 11 -10 3 -10 -22 0 -14
-18 10 -22 16 -3 10 -7 -23 -15 l-45 -11 35 -2 c19 -1 29 -4 23 -7 -21 -8 -15
-23 10 -25 12 -1 -3 -4 -33 -7 -30 -3 -57 -4 -60 -1 -10 10 -30 10 -30 0 0 -7
-6 -7 -19 0 -26 14 -51 13 -27 -2 10 -6 33 -12 50 -13 50 -4 52 -5 33 -16 -10
-6 -32 -8 -50 -5 -28 6 -25 3 18 -20 75 -39 156 -63 247 -75 45 -5 86 -13 90
-16 5 -2 24 -7 41 -10 54 -8 120 -34 162 -63 42 -29 86 -73 70 -70 -27 6 -44
-1 -39 -15 9 -23 -15 -45 -48 -45 -16 0 -35 -6 -43 -13 -11 -11 -5 -16 33 -30
49 -19 62 -13 62 29 0 11 6 29 14 39 13 18 14 18 44 -3 27 -20 72 -79 72 -96
0 -3 -6 -6 -14 -6 -8 0 -17 -6 -19 -12 -3 -8 -6 -6 -6 5 -1 21 -8 22 -26 3
-12 -12 -5 -21 53 -63 37 -27 89 -76 117 -109 27 -32 53 -63 58 -69 23 -27
-11 91 -49 170 -46 96 -89 221 -130 381 -32 122 -44 358 -25 482 11 67 39 192
57 249 3 10 -3 5 -12 -12 -11 -18 -19 -25 -22 -17 -2 7 -17 -11 -32 -40 -31
-59 -31 -73 0 -37 l21 24 -6 -60 c-11 -100 -20 -97 -56 16 -31 96 -34 114 -34
234 0 120 3 135 28 195 15 36 41 82 57 102 36 44 60 99 35 78 -8 -7 -15 -16
-15 -21 0 -12 -62 -101 -67 -96 -6 7 23 74 49 110 13 18 22 37 20 44 -3 14
100 168 113 168 11 0 71 -109 111 -203 26 -60 26 -63 9 -82 -10 -11 -15 -20
-12 -20 11 0 97 118 88 122 -4 2 -34 51 -65 110 -63 118 -68 152 -24 154 15 1
26 -2 26 -5 -1 -3 22 -53 50 -110 40 -81 49 -107 41 -118 -22 -25 -3 -23 22 3
l24 26 -58 111 c-32 62 -67 144 -77 182 -10 39 -19 60 -19 48 -1 -41 -33 -118
-59 -146 -28 -29 -98 -75 -86 -56 4 7 -7 4 -25 -7 -31 -18 -31 -18 -47 4 -21
30 -49 29 -49 -2 0 -14 4 -21 8 -17 14 14 47 0 47 -19 0 -14 5 -17 23 -12 20
5 21 4 8 -12 -8 -9 -20 -15 -27 -12 -19 7 -39 -22 -72 -109 -44 -117 -83 -279
-90 -369 -4 -64 -7 -75 -14 -55 -5 13 -7 58 -5 99 3 41 3 65 0 53 -14 -69 -47
27 -69 206 -17 144 -10 245 28 356 25 75 50 101 111 115 40 9 42 8 27 -21 -6
-10 -7 -19 -2 -19 4 0 16 16 25 36 14 28 22 35 37 31 11 -3 20 -1 20 4 0 16
82 51 111 47 24 -4 29 -1 29 15 0 11 13 35 30 53 59 67 73 110 76 219 2 112
19 179 59 231 46 61 15 82 -67 45 -64 -29 -190 -61 -218 -56 -14 3 -19 3 -12
-1 6 -3 12 -16 12 -29 l0 -24 23 23 c13 13 51 30 91 40 38 9 86 26 107 36 63
33 102 24 60 -14 -18 -17 -103 -154 -116 -189 -4 -10 -18 -17 -34 -18 -15 0
-20 -3 -11 -6 8 -3 23 -12 32 -20 9 -8 25 -12 36 -9 54 18 25 -118 -45 -211
-52 -68 -189 -128 -220 -97 -8 8 -19 14 -25 14 -5 0 -8 6 -5 14 5 11 0 13 -25
5 -20 -5 -36 -5 -44 2 -9 7 -15 1 -23 -22 -14 -40 -10 -45 14 -19 21 23 67 26
84 6 9 -11 7 -13 -12 -13 -34 0 -94 -31 -117 -61 -26 -32 -47 -104 -67 -226
-23 -147 -6 -324 54 -556 100 -388 138 -550 118 -505 -7 17 -91 292 -125 410
-17 61 -45 139 -62 175 -16 35 -39 86 -50 114 -40 102 -150 305 -232 429 -83
125 -221 303 -254 328 -9 7 -5 0 9 -16 87 -101 94 -139 33 -167 -23 -10 -34
-12 -34 -4 0 6 -5 3 -11 -7 -5 -9 -7 -23 -3 -30 4 -6 -21 18 -55 56 -35 37
-73 72 -85 78 -11 6 9 -20 45 -57 191 -198 537 -675 610 -838 35 -79 14 -63
-35 28 -61 112 -186 300 -272 410 -38 49 -68 92 -67 97 2 5 -2 8 -8 6 -6 -1
-13 6 -14 16 -7 39 -261 315 -425 461 -199 177 -311 260 -533 395 -41 25 -54
23 -39 -6 6 -10 12 -301 15 -703 7 -792 15 -918 74 -1140 96 -360 329 -582
654 -623 82 -10 85 -12 81 -34 l-4 -23 -987 0 c-542 0 -980 -4 -973 -9 10 -6
9 -10 -7 -14 -19 -4 -21 -1 -21 32 l0 37 92 13 c112 15 219 49 313 101 59 33
169 116 125 94 -9 -4 -12 -3 -7 2 5 5 15 9 23 9 17 0 137 135 169 190 31 52
89 215 105 290 7 33 19 69 27 82 25 38 35 367 31 1116 -2 553 0 697 10 697 9
0 12 29 12 114 0 83 -3 115 -12 118 -10 4 -13 316 -15 1509 -2 1490 -2 1504
17 1469 10 -19 19 -42 20 -52 0 -9 4 -18 8 -20 5 -1 49 -82 98 -178 l89 -175
5 -640 c3 -352 7 -566 8 -475 12 884 16 1051 26 1033 11 -19 21 -1002 21
-2065 l0 -517 60 -22 c87 -31 256 -122 365 -197 142 -97 232 -173 366 -307
280 -279 490 -595 610 -915 24 -63 43 -112 44 -109 0 4 -8 42 -17 85 -14 60
-18 123 -18 264 1 212 11 263 88 435 24 55 52 121 61 147 22 60 92 139 146
163 27 12 37 21 28 26 -16 10 25 26 92 35 l51 7 45 77 c24 43 51 84 59 90 8 7
15 16 15 21 0 11 -94 -44 -150 -89 -81 -65 -255 -246 -284 -295 -15 -27 -30
-46 -33 -43 -15 14 -46 -51 -56 -117 l-11 -72 -17 55 c-20 65 -23 62 -9 -9 8
-41 6 -71 -10 -144 -10 -51 -22 -109 -25 -130 -3 -21 -9 -35 -13 -33 -4 3 -6
-12 -4 -32 6 -51 -11 -32 -37 46 -13 35 -20 72 -16 85 6 20 5 21 -8 5 -8 -10
-18 -14 -22 -10 -4 4 -1 -4 8 -18 8 -14 21 -45 27 -70 6 -25 20 -59 29 -76 22
-36 38 -164 22 -164 -17 0 -84 142 -137 290 l-48 135 -1 155 c0 170 1 174 87
375 19 44 44 102 55 128 l20 49 21 -35 c12 -18 33 -60 47 -92 l26 -58 29 28
29 28 -61 120 -60 121 9 61 c9 55 10 58 20 35 6 -14 39 -83 74 -155 35 -71 63
-136 62 -142 0 -9 4 -10 19 -2 13 7 16 14 10 22 -11 13 -116 221 -151 300 -14
31 -25 83 -31 150 -8 88 -36 214 -95 427 -37 134 -25 254 41 400 14 32 23 63
19 69 -11 19 -56 -21 -195 -179 -73 -82 -135 -150 -137 -150 -2 0 -12 19 -22
43 -17 37 -59 125 -296 612 -35 72 -97 200 -138 285 -694 1441 -788 1611 -996
1820 -177 178 -431 328 -618 365 -47 9 -42 29 5 21 20 -3 375 -6 788 -6 l751
0 28 -72 c50 -129 260 -557 845 -1728 315 -630 686 -1374 826 -1654 140 -280
260 -514 268 -520 7 -6 38 -58 68 -116 31 -58 77 -139 102 -180 25 -41 46 -78
46 -82 0 -5 -12 -27 -27 -51 -14 -23 -79 -132 -143 -242 -64 -110 -138 -235
-163 -278 -26 -43 -42 -77 -35 -75 7 3 50 69 96 149 46 79 156 266 245 414 88
149 205 347 260 440 93 158 181 306 712 1200 111 187 241 408 290 490 170 289
309 521 404 674 118 190 109 177 116 169 10 -10 -85 -188 -195 -363 -21 -33
-219 -364 -440 -735 -222 -371 -485 -812 -585 -980 -100 -168 -249 -417 -330
-555 -353 -594 -538 -900 -546 -903 -5 -2 2 -13 16 -24 14 -11 31 -18 38 -15
7 3 39 52 73 109 141 238 271 458 414 698 84 140 191 320 238 400 47 80 102
172 123 205 46 73 198 326 249 415 21 36 61 103 90 150 29 47 76 126 105 175
58 100 298 501 398 665 35 58 97 162 138 232 41 70 77 128 82 128 4 0 7 -188
7 -417 1 -230 3 -723 6 -1096 l5 -678 -153 -162 c-319 -337 -543 -606 -869
-1042 -90 -121 -196 -259 -236 -307 -66 -80 -72 -89 -66 -122 l6 -35 180 172
c388 369 642 615 877 851 135 135 248 246 252 246 10 0 11 -702 2 -789 l-7
-61 -73 0 c-40 0 -76 -5 -79 -10 -4 -7 24 -10 82 -9 51 1 98 -3 110 -10 12 -6
23 -11 25 -11 2 0 3 165 4 368 0 202 5 394 10 427 8 55 9 47 15 -95 10 -236 9
-1018 -1 -995 -5 11 -9 75 -9 143 l-1 122 -37 -2 c-37 -1 -37 -1 -5 -5 l32 -4
0 -83 c0 -112 -10 -119 -81 -60 -55 47 -169 107 -224 118 -16 4 13 -14 65 -40
197 -98 291 -241 289 -442 -1 -82 -11 -63 -33 63 -22 117 -54 182 -128 256
-94 93 -267 167 -423 181 -26 3 -30 8 -33 35 l-3 32 133 4 133 3 -140 -1 -140
0 0 -55 c0 -62 -19 -51 141 -84 110 -23 197 -69 274 -145 76 -76 106 -133 120
-228 12 -83 13 -723 2 -723 -17 0 -38 35 -57 93 -10 31 -20 55 -23 52 -2 -2 3
-22 12 -45 9 -22 16 -49 16 -60 0 -10 13 -28 30 -40 62 -44 119 -216 106 -320
-13 -94 -85 -199 -166 -240 -22 -11 -82 -60 -133 -108 -52 -49 -111 -99 -131
-111 -44 -28 -48 -39 -5 -14 40 23 179 141 179 152 0 5 19 21 43 36 23 15 61
41 85 56 23 16 45 29 47 29 8 0 6 -776 -1 -795 -4 -9 -18 -21 -32 -26 -19 -7
-28 -6 -39 8 -8 10 -5 0 6 -22 11 -23 22 -57 26 -77 7 -35 6 -36 -37 -52 -70
-26 -190 -56 -222 -56 -22 0 -27 -3 -19 -11 8 -8 60 -10 161 -8 l149 4 5 -190
c3 -104 2 -512 -2 -905 -7 -695 -7 -717 -29 -788 -36 -121 -83 -203 -163 -284
-129 -130 -290 -196 -589 -243 -35 -5 -36 -7 -42 -56 -8 -65 -2 -79 37 -80
186 -3 2681 -3 2711 1 l40 5 0 65 0 65 -107 21 c-165 34 -247 70 -354 155 -89
71 -172 221 -206 374 -20 86 -21 139 -28 1190 -4 605 -4 1103 -1 1108 4 4 410
6 902 5 l894 -3 1 -450 c0 -247 -3 -751 -7 -1120 -8 -738 -8 -738 -72 -877
-82 -179 -282 -330 -499 -377 -121 -27 -136 -33 -142 -55 -10 -37 -6 -83 8
-95 10 -8 354 -12 1316 -13 1102 -1 1303 1 1311 13 13 21 11 105 -4 117 -7 6
-41 14 -77 17 -96 10 -217 42 -289 75 -187 88 -285 227 -320 459 -16 100 -16
3757 0 3868 24 171 87 309 193 420 125 133 260 198 496 240 45 8 45 8 48 52 4
54 -5 83 -18 61 -6 -8 -10 -24 -10 -35 0 -18 -10 -22 -75 -32 -368 -59 -626
-321 -685 -696 -14 -90 -23 -2998 -11 -3502 8 -331 11 -379 31 -455 57 -221
189 -363 402 -434 74 -25 278 -53 298 -41 12 7 13 -14 1 -33 -6 -11 -251 -14
-1290 -16 -1201 -3 -1282 -4 -1294 -20 -11 -15 -13 -12 -14 21 l-2 39 87 18
c105 21 187 49 267 89 68 33 156 95 152 106 -3 10 79 102 86 95 3 -3 -15 -24
-39 -46 -25 -23 -42 -43 -39 -46 9 -10 96 82 90 96 -2 7 -1 10 5 7 9 -6 40 34
44 57 4 28 29 77 36 73 12 -7 38 79 49 160 6 41 9 418 7 910 -2 835 6 1356 23
1385 7 13 -55 15 -543 12 -624 -4 -1402 7 -1341 19 22 4 63 9 90 10 28 1 41 3
30 6 -47 10 -50 14 -25 26 13 7 36 30 51 52 25 36 25 40 10 52 -18 14 62 15
1167 14 l612 0 0 599 c0 333 -4 620 -9 647 -6 26 -15 91 -21 143 -23 180 -91
335 -193 432 -28 27 -44 48 -36 48 21 0 69 -35 107 -77 l34 -38 -31 42 c-18
23 -47 51 -66 63 -19 12 -35 25 -35 30 0 4 12 33 26 64 l25 56 817 0 c449 0
827 3 840 6 45 13 20 -12 -46 -43 -176 -85 -314 -236 -379 -417 -48 -134 -46
-68 -50 -2021 -4 -1912 -2 -2053 38 -2195 38 -139 125 -263 230 -331 84 -54
218 -106 289 -113 l65 -6 -106 35 c-166 54 -299 153 -378 280 -39 62 -76 176
-91 280 -14 106 -15 3791 0 3895 28 198 100 353 212 456 94 87 226 161 353
197 45 13 -31 15 -700 13 -970 -1 -1076 0 -1068 19 3 8 13 15 22 15 9 0 34 7
56 15 34 12 187 14 974 15 514 0 932 2 929 5 -3 3 -412 6 -909 6 -497 0 -926
4 -954 7 l-50 7 85 73 c47 41 115 92 153 114 63 38 71 40 131 36 51 -3 61 -1
50 9 -7 7 -29 13 -50 13 -47 0 -40 8 15 18 23 4 41 11 41 16 -4 26 190 96 264
96 33 0 47 -8 90 -48 128 -121 316 -123 433 -3 21 21 39 47 40 57 1 10 5 31 9
47 5 21 3 27 -10 27 -9 0 -19 7 -22 15 -6 15 -45 22 -43 8 0 -5 11 -24 24 -43
l23 -35 -26 -48 c-51 -95 -179 -124 -274 -62 l-43 28 29 -32 c17 -17 24 -31
17 -31 -20 0 -51 20 -51 33 -1 13 -35 57 -45 57 -10 0 -85 63 -85 72 0 4 23 8
51 8 41 0 50 -3 45 -15 -6 -18 2 -45 15 -45 5 0 9 8 9 18 0 21 40 62 60 62 10
0 11 3 3 11 -8 8 -20 7 -44 -4 -19 -8 -58 -15 -88 -15 l-54 -1 25 27 c13 15
37 45 52 67 26 36 23 34 -21 -12 -28 -29 -55 -53 -61 -53 -6 0 -12 -10 -14
-22 -2 -18 -13 -24 -58 -33 -178 -36 -434 -161 -595 -290 -67 -53 -73 -50 -14
8 88 84 271 197 424 260 22 9 29 14 15 11 -39 -9 -238 -108 -309 -154 -35 -22
-67 -40 -72 -38 -6 2 12 36 40 75 91 132 214 277 371 434 178 180 203 194 369
209 53 5 121 16 151 25 54 17 190 81 190 90 0 5 -39 -9 -67 -24 -96 -51 -207
-81 -300 -81 -93 0 -252 -58 -245 -89 1 -7 -2 -10 -8 -6 -32 20 -461 -463
-563 -635 -15 -25 -27 -39 -27 -32 0 68 330 480 541 675 85 78 170 189 157
203 -3 3 -19 -19 -36 -49 -18 -33 -66 -87 -119 -135 -48 -45 -131 -129 -183
-188 -52 -59 -112 -126 -133 -148 l-39 -41 7 30 c10 47 327 684 380 764 70
106 152 165 320 231 325 128 526 302 658 570 57 116 79 186 118 376 32 156 64
240 127 333 47 69 60 94 33 61 -70 -84 -151 -238 -151 -288 0 -15 -11 -51 -25
-80 -13 -29 -20 -50 -15 -47 15 9 12 -26 -5 -75 -8 -23 -12 -46 -10 -51 7 -10
-30 -84 -45 -94 -5 -3 -10 -11 -10 -16 0 -6 5 -7 11 -3 21 12 0 -46 -33 -95
-35 -52 -76 -90 -98 -91 -13 0 -13 -1 0 -10 11 -7 20 -4 33 11 10 12 20 19 23
16 8 -8 -21 -59 -46 -82 -12 -11 -30 -36 -40 -55 -20 -39 -96 -114 -133 -131
-13 -6 -27 -20 -32 -32 -6 -11 -28 -30 -51 -41 -22 -12 -53 -31 -68 -43 -28
-23 -56 -30 -56 -15 0 4 35 26 76 50 42 24 74 45 72 47 -6 6 -92 -15 -102 -25
-6 -6 -1 -8 13 -5 32 6 15 -14 -26 -31 -18 -8 -36 -21 -39 -29 -4 -8 -10 -13
-14 -10 -4 3 -36 -8 -71 -25 -72 -33 -65 -40 11 -11 27 11 50 16 50 11 0 -10
-55 -36 -95 -46 -16 -4 -36 -12 -43 -17 -8 -6 -45 -21 -82 -33 -60 -19 -108
-46 -240 -139 -28 -20 -134 -199 -219 -370 -22 -44 -40 -75 -40 -69 -2 29 88
223 166 358 251 437 471 716 958 1216 220 225 257 270 93 111 -71 -69 -100
-85 -63 -37 8 11 15 25 15 30 -1 6 -7 0 -15 -14 -9 -15 -14 -19 -15 -10 0 8
-13 -13 -30 -47 -16 -35 -32 -63 -35 -63 -3 0 -3 6 0 13 4 6 -1 3 -9 -7 -9
-11 -16 -23 -16 -26 0 -4 -7 -7 -15 -7 -17 0 -28 24 -18 39 3 7 1 8 -5 4 -7
-4 -12 -11 -12 -16 0 -14 -44 -75 -55 -77 -5 -1 -15 -23 -22 -50 -11 -46 -11
-46 -12 -13 l-1 35 -25 -30 c-24 -30 -24 -30 -25 -6 0 38 -10 19 -30 -60 l-19
-74 4 70 c2 39 7 84 10 100 3 17 -8 -8 -24 -55 -16 -47 -30 -76 -31 -65 -1 11
-8 -2 -15 -28 -16 -59 -25 -70 -25 -31 0 22 -3 26 -10 14 -5 -8 -10 -25 -10
-37 0 -13 -4 -23 -10 -23 -22 0 -50 -36 -50 -65 0 -16 -5 -37 -10 -45 -31 -47
11 275 44 338 19 36 20 46 5 36 -8 -4 -8 0 0 15 7 11 16 21 21 21 5 0 12 10
16 23 3 12 30 44 58 70 51 48 40 48 -36 0 -21 -12 -44 -23 -51 -23 -21 0 -140
-116 -144 -140 -2 -11 -11 -37 -22 -58 -32 -64 -40 -104 -45 -237 -3 -71 -5
-131 -6 -133 0 -1 -5 -1 -12 0 -7 2 -16 -21 -24 -62 l-12 -65 -3 65 c-4 82 -3
92 4 162 7 64 25 138 33 138 4 0 3 -7 0 -16 -3 -9 -2 -12 5 -9 5 4 9 14 8 23
-4 29 12 85 42 145 16 31 26 57 21 57 -25 0 -148 -165 -179 -240 -12 -30 -25
-53 -29 -50 -7 5 -49 -106 -89 -233 -22 -72 -38 -163 -49 -287 -2 -25 -3 11
-1 80 3 128 20 202 84 369 11 30 19 56 17 58 -5 5 -47 -107 -85 -227 -17 -52
-29 -79 -26 -60 22 186 12 512 -25 799 -20 149 -19 202 5 276 7 20 6 20 -9 1
-9 -11 -16 -34 -16 -50 -1 -22 -3 -27 -9 -16 -13 22 -19 149 -7 147 17 -3 18
32 1 55 -17 23 -17 23 -10 -9 4 -20 3 -33 -4 -33 -48 0 -17 402 39 497 11 19
18 38 15 42 -2 5 2 17 10 27 20 26 18 33 -5 27 -15 -4 -20 0 -20 14 0 27 27
49 79 63 56 15 64 6 15 -16 -22 -9 -33 -18 -27 -21 9 -3 6 -14 -11 -36 -37
-51 -40 -65 -4 -23 18 22 55 60 82 85 97 92 127 191 91 302 -24 76 -57 162
-68 174 -4 6 -3 -3 2 -18 6 -16 11 -38 10 -50 0 -21 -1 -21 -8 -2 -8 19 -8 19
-15 -2 -8 -25 -18 -28 -46 -13 -20 11 -22 7 -45 -95 l-6 -30 32 33 c37 38 65
47 101 33 66 -25 61 -190 -8 -262 -30 -31 -69 -46 -60 -23 4 11 2 12 -14 4
-10 -5 -22 -15 -25 -20 -3 -6 -17 -10 -29 -10 -32 0 -38 28 -25 114 11 79 7
95 -11 39 -7 -21 -24 -60 -39 -88 -22 -40 -26 -59 -21 -95 l5 -45 14 43 c13
40 38 62 28 25 -3 -10 -10 -47 -17 -83 -6 -36 -15 -81 -20 -100 -13 -49 -37
-210 -47 -305 l-7 -80 -8 70 c-4 39 -6 93 -4 120 2 28 1 38 -1 23 -7 -44 -19
-33 -38 35 -65 239 -206 661 -215 646 -4 -6 -15 8 -24 33 -10 24 -29 67 -43
95 -20 43 -23 62 -18 100 4 31 3 43 -3 34 -7 -9 -19 7 -46 64 -36 76 -36 77
-31 181 3 69 1 103 -5 99 -6 -3 -10 -19 -10 -35 0 -15 -7 -30 -15 -34 -8 -3
-15 -16 -15 -28 -1 -23 -1 -23 -15 2 -8 14 -14 19 -15 11 0 -11 -5 -10 -20 4
-14 13 -20 14 -20 5 0 -20 -35 15 -71 71 -17 27 -33 49 -35 49 -7 0 59 -114
78 -135 10 -11 31 -35 47 -54 l28 -35 28 42 c15 23 30 40 32 38 8 -7 -18 -50
-41 -68 l-21 -17 92 -183 c50 -101 109 -228 131 -283 83 -211 200 -593 272
-885 21 -84 71 -376 87 -505 26 -215 23 -609 -6 -830 -58 -438 -168 -831 -347
-1241 -60 -134 -71 -116 -13 22 114 273 217 600 273 869 27 131 67 419 65 475
-1 19 -9 -31 -19 -111 -20 -164 -27 -203 -76 -414 -44 -187 -44 -186 -55 -180
-5 4 -9 51 -9 105 0 181 -43 579 -72 669 -14 45 -4 127 27 225 38 118 29 136
-10 21 -30 -87 -40 -94 -21 -15 4 14 3 19 0 12 -11 -23 -34 7 -34 44 0 19 -4
34 -10 34 -18 0 -10 51 15 102 28 55 28 74 1 33 -9 -14 -21 -23 -26 -20 -6 4
-10 -15 -10 -45 0 -28 -4 -60 -10 -70 -7 -13 -6 -19 4 -23 9 -4 16 -33 20 -89
8 -100 21 -177 47 -281 39 -160 53 -318 53 -582 -1 -191 -5 -263 -16 -305 -15
-52 -15 -45 -10 160 7 315 -17 565 -80 815 -5 22 -9 55 -9 74 1 19 -10 75 -23
125 -14 50 -27 105 -29 121 -4 28 -4 27 -6 -7 0 -20 -7 -38 -13 -41 -10 -3
-10 -9 0 -26 17 -29 0 -26 -38 5 l-31 26 12 -26 c7 -14 20 -26 29 -26 23 0 43
-25 69 -84 29 -68 27 -68 -20 0 -47 67 -74 97 -40 44 78 -124 113 -244 146
-510 25 -197 26 -569 2 -715 -19 -113 -77 -310 -84 -288 -3 7 7 75 21 151 37
201 46 296 46 486 0 279 -37 461 -135 663 -60 124 -106 197 -199 312 -249 307
-504 479 -826 556 -135 32 -446 28 -524 -6 -19 -9 -18 -9 4 -5 425 81 842 -46
1150 -352 l95 -95 -85 78 c-150 136 -321 239 -488 295 -288 96 -582 90 -886
-16 -38 -13 -70 -24 -71 -24 -8 0 -10 221 -10 990 l0 905 28 90 c106 340 399
528 887 570 111 10 110 9 110 65 0 35 -4 50 -17 54 -19 8 -1794 8 -1801 1 -4
-4 1351 -12 1706 -9 88 0 92 -1 86 -20 -12 -38 -23 -43 -121 -50 -155 -11
-396 -62 -426 -90 -7 -6 -18 -11 -24 -12 -30 -2 -34 -5 -28 -14 4 -6 -1 -7
-11 -3 -12 4 -15 3 -10 -5 5 -8 1 -10 -10 -5 -13 5 -15 3 -9 -7 5 -9 4 -11 -3
-6 -21 13 -106 -47 -193 -135 -71 -72 -95 -104 -132 -181 -25 -51 -56 -131
-69 -178 l-23 -85 0 -1115 c0 -723 -4 -1120 -10 -1130 -13 -19 -20 522 -20
1530 l0 765 23 80 c58 205 160 346 324 449 97 60 211 101 373 136 l130 27
-761 2 -762 2 -32 -58 c-18 -32 -42 -73 -53 -92 -12 -19 -15 -31 -9 -27 20 12
14 -6 -16 -52 -16 -23 -32 -39 -37 -35 -4 5 -5 2 -1 -4 8 -15 -17 -56 -28 -46
-4 4 -4 -1 0 -11 6 -15 4 -17 -6 -11 -9 5 -11 4 -6 -3 9 -15 -12 -54 -24 -47
-6 4 -7 -1 -3 -11 4 -11 3 -15 -5 -10 -6 3 -14 1 -18 -5 -5 -8 -3 -9 6 -4 19
12 8 -15 -47 -107 -41 -72 -63 -100 -49 -63 8 22 -2 18 -15 -6 -9 -17 -8 -20
2 -14 18 12 6 -16 -40 -95 -21 -36 -60 -102 -86 -147 -26 -46 -51 -80 -56 -77
-5 3 -7 -1 -4 -8 6 -16 -47 -114 -61 -111 -5 1 -10 -9 -10 -22 -2 -20 -90
-175 -100 -175 -2 0 -1 8 2 18 5 14 4 14 -4 2 -6 -8 -9 -17 -6 -22 3 -4 -5
-25 -16 -48 -21 -41 -34 -54 -23 -22 3 9 3 14 -1 10 -4 -3 -9 -18 -10 -32 -2
-15 -10 -34 -18 -44 -8 -9 -18 -26 -22 -36 -3 -10 -9 -16 -13 -12 -5 5 -93
-137 -93 -151 0 -2 5 -1 11 3 6 3 3 -8 -5 -25 -9 -17 -21 -30 -27 -28 -6 1
-27 -27 -46 -63 -19 -36 -28 -56 -19 -46 23 28 20 9 -5 -30 -23 -37 -31 -44
-23 -16 5 13 4 14 -4 3 -6 -8 -8 -21 -4 -29 3 -9 1 -13 -5 -9 -12 7 -27 -20
-24 -41 1 -7 -4 -11 -11 -10 -7 2 -12 -3 -10 -10 3 -17 -10 -40 -67 -116 -27
-36 -52 -75 -56 -87 -4 -12 -16 -32 -26 -43 -11 -11 -17 -27 -14 -36 3 -10 -5
-28 -20 -44 -13 -14 -25 -29 -25 -31 0 -3 0 -10 0 -16 0 -5 -4 -8 -8 -5 -11 6
-116 -174 -114 -197 0 -10 -6 -21 -13 -24 -8 -3 -29 -30 -46 -62 -18 -31 -58
-99 -89 -151 -47 -80 -161 -274 -178 -304 -3 -5 0 -6 6 -2 8 5 10 2 6 -8 -3
-9 -10 -14 -14 -11 -4 3 -7 -1 -6 -8 0 -6 -3 -12 -7 -12 -9 0 -13 -7 -114
-180 -122 -208 -273 -466 -344 -586 -72 -121 -81 -141 -52 -118 12 10 10 2 -8
-30 -29 -54 -43 -57 -47 -12 -2 23 6 52 27 91 17 32 33 71 35 88 4 35 14 54
26 47 12 -7 103 152 94 166 -4 7 -3 9 4 5 13 -7 24 8 27 38 4 36 5 37 14 31 6
-3 15 4 21 16 9 17 9 20 0 14 -8 -5 -11 -3 -8 6 3 8 10 14 16 14 7 0 30 32 53
70 22 39 50 85 62 104 11 19 15 31 9 27 -18 -11 -14 5 8 39 11 17 20 25 20 20
0 -6 -5 -16 -12 -23 -6 -6 -9 -14 -6 -18 4 -3 14 9 23 26 9 18 12 29 6 26 -17
-11 -13 6 13 49 14 22 30 40 36 40 6 0 28 29 48 64 20 36 30 61 23 56 -9 -5
-12 -3 -9 6 3 8 11 14 18 14 7 0 26 24 43 54 17 30 26 51 19 47 -7 -4 -12 -4
-12 1 0 15 19 38 31 38 6 0 23 20 37 44 14 25 21 41 14 37 -18 -11 -15 0 19
57 17 29 28 42 24 30 -8 -28 1 -30 14 -4 8 14 7 20 -3 24 -10 4 -55 -64 -152
-231 -75 -130 -174 -300 -219 -377 -173 -295 -189 -325 -163 -309 7 4 8 3 4
-5 -4 -6 -11 -9 -16 -6 -14 9 -100 -147 -94 -170 4 -14 3 -16 -4 -7 -7 10 -20
-4 -50 -52 -23 -36 -45 -66 -49 -66 -13 0 -85 141 -842 1660 -281 564 -639
1277 -795 1585 -157 308 -301 599 -321 647 -44 106 -61 124 -70 75 -4 -18 -1
-54 5 -78 18 -67 92 -229 164 -358 103 -186 434 -836 818 -1604 435 -871 1036
-2085 1043 -2109 22 -71 -43 50 -270 503 -138 275 -255 496 -260 492 -4 -4 -5
-3 -1 4 4 7 -21 65 -54 130 -34 65 -59 110 -56 101 8 -28 -2 -21 -19 13 -9 17
-14 37 -11 45 4 10 2 12 -6 8 -8 -5 -9 -2 -5 10 4 9 3 15 -2 12 -5 -3 -12 1
-15 10 -3 8 -2 12 4 9 6 -3 7 1 4 9 -3 9 -9 14 -13 11 -4 -2 -7 6 -7 18 1 13
-4 21 -12 19 -8 -1 -10 2 -7 8 9 14 -45 121 -56 114 -5 -3 -6 1 -3 9 7 19
-124 280 -136 272 -5 -3 -7 0 -4 8 8 21 -64 160 -78 151 -8 -5 -9 -2 -5 10 4
9 3 15 -1 12 -5 -3 -18 15 -30 39 -26 54 -20 60 7 8 11 -21 20 -35 21 -30 0
11 -99 207 -105 207 -3 0 8 -27 25 -60 16 -33 30 -63 30 -67 -1 -4 -17 23 -36
60 -19 37 -32 73 -28 79 5 7 2 8 -6 3 -10 -6 -12 -4 -7 9 4 11 3 15 -4 10 -7
-4 -9 0 -6 12 4 12 -22 74 -68 164 -41 80 -74 141 -74 135 0 -5 6 -21 14 -35
8 -14 14 -29 14 -35 0 -5 -16 21 -35 58 -19 37 -32 72 -29 77 6 9 -21 70 -31
70 -2 0 3 -14 11 -31 9 -17 15 -33 13 -35 -2 -2 -14 17 -26 42 -12 25 -18 43
-12 39 6 -3 7 0 4 9 -3 9 -11 13 -17 9 -6 -4 -8 0 -4 11 5 11 3 15 -5 10 -8
-5 -9 -2 -5 9 4 10 2 16 -5 14 -6 -1 -13 4 -16 12 -3 8 0 11 7 7 16 -10 14 -1
-9 45 -12 22 -25 37 -30 34 -6 -4 -7 1 -3 11 5 13 3 15 -7 9 -10 -6 -12 -4 -7
9 5 11 3 15 -5 10 -8 -5 -9 -2 -5 10 4 9 3 15 -2 12 -5 -3 -12 1 -15 10 -3 8
-2 12 4 9 6 -3 7 1 4 9 -3 9 -11 13 -17 9 -5 -3 -7 -1 -3 5 9 14 -25 83 -37
75 -6 -3 -7 -1 -3 5 10 16 -192 414 -206 406 -8 -5 -9 -2 -5 10 9 22 -30 99
-45 90 -8 -5 -9 -1 -5 10 5 11 3 15 -5 10 -8 -5 -9 -2 -5 10 4 9 3 15 -2 11
-5 -3 -15 12 -22 32 -6 20 -42 96 -79 167 -36 72 -83 175 -104 228 l-37 96
-881 1 c-485 1 -879 -1 -876 -4 3 -3 48 -17 99 -30 137 -36 200 -61 329 -127
112 -57 355 -224 395 -272 44 -52 55 -67 55 -75 0 -4 10 -16 22 -27 22 -19 23
-19 8 1 -14 19 -14 19 3 6 10 -8 16 -20 13 -27 -3 -7 10 -27 27 -46 59 -61
131 -190 352 -633 121 -242 220 -444 221 -450 1 -5 29 -59 62 -120 82 -152
232 -467 232 -487 0 -9 6 -21 14 -25 8 -4 44 -73 81 -153 118 -256 146 -315
160 -330 7 -8 34 -63 59 -121 25 -59 64 -146 86 -194 40 -83 41 -87 24 -106
-9 -10 -15 -21 -12 -24 2 -3 47 46 100 108 106 126 256 287 267 287 4 0 -9
-33 -30 -74 -52 -103 -67 -213 -45 -323 9 -44 14 -87 10 -96 -6 -17 15 -122
23 -114 2 3 -1 26 -8 51 -18 74 -2 65 20 -10 30 -105 60 -251 66 -329 11 -119
-21 -315 -67 -414 -11 -25 -22 -53 -23 -61 -2 -21 -24 -58 -25 -42 0 7 5 23
11 34 10 18 9 20 -5 15 -13 -5 -13 -2 4 21 22 31 69 169 76 222 2 19 7 71 11
115 6 73 5 79 -10 67 -9 -8 -19 -35 -22 -60 -8 -60 -29 -116 -63 -167 -15 -22
-36 -58 -47 -79 -19 -38 -114 -140 -123 -132 -2 3 5 17 15 33 16 25 16 27 0
14 -12 -9 -17 -10 -17 -2 0 7 -5 9 -10 6 -17 -11 -11 7 16 42 14 18 20 33 14
33 -6 0 17 35 51 78 l63 77 -99 -98 c-55 -54 -101 -94 -103 -89 -1 5 21 34 50
63 44 44 45 46 6 10 -48 -45 -69 -50 -48 -12 6 12 7 21 2 21 -5 0 -9 18 -10
40 -2 43 12 73 62 130 22 25 18 23 -17 -10 l-48 -45 4 73 c2 50 0 69 -7 62 -6
-6 -10 -89 -10 -217 0 -349 37 -522 205 -943 8 -18 7 -22 -1 -14 -16 15 -87
183 -120 284 -84 250 -124 581 -101 843 25 279 92 514 221 775 42 83 75 152
74 152 -1 0 -43 -48 -94 -107 -51 -60 -77 -92 -57 -74 21 19 37 30 37 25 0 -6
-9 -19 -20 -29 -11 -10 -20 -24 -20 -32 0 -7 -4 -13 -10 -13 -5 0 -6 -7 -3
-17 4 -11 3 -14 -5 -9 -8 5 -10 2 -6 -9 4 -8 2 -21 -3 -28 -5 -6 -16 -32 -24
-57 l-14 -45 -5 55 c-5 47 -2 60 18 88 13 17 21 32 19 32 -9 0 -136 -159 -161
-202 -29 -49 -46 -138 -27 -138 6 0 11 -13 11 -29 0 -16 4 -41 10 -55 5 -14
11 -42 14 -63 3 -21 10 -54 16 -73 15 -51 11 -61 -7 -18 -18 44 -37 40 -28 -5
l6 -32 -15 25 c-9 14 -15 33 -16 44 0 12 -5 16 -14 13 -20 -8 -30 81 -17 148
5 27 8 52 6 53 -7 7 -46 -80 -64 -141 -45 -151 -54 -215 -48 -335 5 -116 31
-242 64 -305 8 -16 12 -31 10 -34 -13 -12 -71 153 -87 245 -6 37 -8 41 -9 16
-2 -49 45 -200 92 -294 35 -71 132 -221 207 -320 23 -31 72 -160 61 -160 -5 0
-51 53 -103 118 -260 323 -533 546 -846 693 -56 27 -105 54 -107 61 -3 7 -4
548 -3 1202 l3 1188 127 -253 c69 -140 168 -339 218 -444 51 -104 148 -302
215 -440 68 -137 166 -339 219 -447 53 -109 97 -198 99 -198 2 0 13 13 25 29
l22 30 -71 143 c-74 149 -322 657 -631 1293 -396 815 -539 1082 -667 1245
-196 248 -485 432 -831 530 -65 18 -189 31 -341 34 l-35 1 6 43 c6 39 2 51
-13 35z m7719 -201 c-3 -5 -35 -17 -71 -27 -60 -16 -126 -52 -184 -100 -93
-77 -166 -149 -166 -163 -1 -9 -6 -16 -12 -15 -19 4 -49 -41 -83 -124 -69
-164 -65 -93 -62 -1378 l2 -1160 -57 -34 c-266 -156 -630 -442 -943 -739 -41
-39 -76 -70 -77 -68 -2 1 -3 567 -3 1256 -1 1346 2 1279 -48 1190 -11 -19 -51
-84 -89 -145 -38 -60 -165 -272 -283 -470 -286 -482 -655 -1103 -805 -1355
-160 -268 -244 -408 -401 -672 l-129 -218 -50 100 c-27 55 -55 100 -62 100 -7
0 -13 2 -13 4 0 3 51 90 114 194 118 196 302 507 441 747 580 999 707 1218
1085 1880 327 572 376 659 445 775 34 58 99 168 145 245 45 77 91 150 103 163
l20 22 594 0 c327 0 592 -4 589 -8z m-1286 -102 c-6 -12 -14 -20 -17 -17 -2 3
1 14 8 26 17 26 24 19 9 -9z m-5129 -337 c13 -16 12 -17 -3 -4 -10 7 -18 15
-18 17 0 8 8 3 21 -13z m1108 -68 c0 -5 -8 6 -19 25 -11 19 -19 40 -19 45 0 6
8 -6 19 -25 11 -19 19 -39 19 -45z m25 -41 c3 -8 2 -12 -4 -9 -6 3 -10 10 -10
16 0 14 7 11 14 -7z m100 -201 c20 -40 34 -73 31 -73 -5 0 -75 136 -75 146 0
12 6 1 44 -73z m7186 -465 c0 -16 -3 -19 -11 -11 -6 6 -8 16 -5 22 11 17 16
13 16 -11z m-6785 -329 c9 -17 15 -33 13 -35 -3 -2 -12 12 -21 31 -21 43 -13
47 8 4z m3087 -762 c5 -419 9 -804 11 -855 1 -52 -1 -96 -6 -99 -4 -2 -7 -137
-6 -300 1 -267 -1 -296 -17 -314 -9 -10 -20 -19 -23 -19 -11 0 4 2298 15 2338
4 12 9 20 12 17 3 -3 10 -349 14 -768z m-3026 642 c14 -28 24 -53 22 -55 -2
-2 -16 21 -31 51 -15 30 -25 55 -22 55 3 0 16 -23 31 -51z m-1709 -131 c-2
-13 -4 -5 -4 17 -1 22 1 32 4 23 2 -10 2 -28 0 -40z m-20 -35 c-2 -16 -4 -3
-4 27 0 30 2 43 4 28 2 -16 2 -40 0 -55z m1942 -268 c0 -5 -8 6 -19 25 -11 19
-19 40 -19 45 0 6 8 -6 19 -25 11 -19 19 -39 19 -45z m161 -319 c0 -12 -5 -7
-19 24 -11 24 -11 24 3 6 9 -11 16 -24 16 -30z m4671 -140 c53 -14 119 -34
147 -45 69 -28 195 -91 190 -96 -2 -3 -42 3 -89 11 -64 13 -120 15 -239 11
-134 -5 -174 -10 -293 -41 -126 -32 -295 -94 -439 -160 l-58 -26 0 146 0 145
33 14 c43 18 184 54 256 65 31 5 133 7 226 5 143 -3 185 -7 266 -29z m-3210
-167 c-12 -19 -21 -30 -21 -26 0 12 33 67 38 63 1 -2 -6 -19 -17 -37z m3509
10 c82 -21 254 -90 275 -110 6 -6 -23 4 -64 21 -40 17 -75 29 -78 27 -2 -3 5
-8 16 -12 12 -3 21 -13 21 -21 0 -8 4 -14 10 -14 5 0 14 -9 20 -20 10 -18 8
-19 -22 -15 -19 3 -6 -5 32 -18 233 -85 381 -202 489 -384 60 -103 114 -270
142 -448 19 -116 17 -452 -5 -600 -73 -520 -268 -1054 -544 -1489 -648 -1023
-1717 -1869 -2722 -2151 -114 -32 -148 -29 -50 4 l72 25 -7 35 c-4 20 -12 42
-17 49 -14 16 -21 11 96 66 583 273 1282 804 1819 1381 559 599 949 1153 1125
1596 162 409 179 896 45 1299 -19 58 -36 112 -39 120 -3 8 9 -10 25 -40 17
-30 30 -49 31 -42 0 7 4 11 8 8 16 -10 35 13 35 43 0 17 1 31 3 31 7 0 41 -87
60 -155 28 -98 31 -77 5 26 -102 399 -436 639 -886 639 -530 -1 -1122 -316
-1875 -999 -141 -128 -311 -296 -1109 -1095 -344 -344 -627 -624 -629 -621 -3
2 7 20 21 38 14 19 23 37 20 41 -4 3 0 6 7 6 20 0 651 633 646 647 -3 7 -1 15
4 18 4 3 7 31 4 63 -3 57 -2 59 47 122 l50 65 -60 -65 c-44 -48 -59 -70 -55
-85 4 -15 3 -16 -4 -6 -10 14 -113 -104 -265 -300 -36 -47 -74 -92 -84 -100
-22 -18 112 158 276 361 361 447 732 842 1106 1175 309 275 536 443 865 639
25 14 52 30 60 36 71 43 333 147 471 185 206 58 438 67 609 24z m1727 -26
c-14 -21 -28 -52 -32 -70 -7 -36 -35 -67 -35 -39 0 21 36 93 64 127 30 38 32
27 3 -18z m-92 -110 c-25 -48 -37 -87 -42 -133 -3 -36 -12 -69 -19 -75 -8 -6
-17 -51 -23 -115 l-9 -105 2 135 c4 158 21 226 80 308 21 28 40 52 42 52 2 0
-12 -30 -31 -67z m-1285 -19 c0 -2 -13 2 -30 11 -16 9 -30 18 -30 21 0 2 14
-2 30 -11 17 -9 30 -18 30 -21z m-3947 -9 c-3 -9 -8 -14 -10 -11 -3 3 -2 9 2
15 9 16 15 13 8 -4z m3717 -49 c205 -55 307 -144 436 -377 67 -120 119 -286
156 -489 20 -113 17 -452 -5 -560 -33 -160 -99 -375 -149 -485 -74 -161 -82
-165 -74 -33 6 104 21 162 64 258 11 25 27 68 36 95 21 64 22 212 2 260 -18
43 -22 43 -28 5 -3 -23 -2 -27 8 -19 22 18 25 -29 15 -213 -1 -9 -7 -23 -15
-31 -23 -23 -56 -81 -56 -97 1 -8 10 2 21 23 11 22 23 37 25 34 5 -5 -25 -67
-46 -97 -9 -13 -11 -12 -9 5 1 11 0 31 0 45 -5 60 -19 -22 -31 -177 -15 -190
-36 -227 -28 -50 2 61 3 97 1 80 -2 -18 -8 -33 -12 -33 -5 0 -19 26 -31 58
-13 31 -57 121 -97 199 -72 138 -74 145 -73 210 1 77 -6 162 -14 171 -3 3 -6
-10 -6 -30 0 -45 -19 -100 -32 -92 -5 3 -15 -2 -23 -12 -13 -18 -16 -16 -61
26 -49 47 -50 47 -19 -13 16 -32 17 -41 7 -58 -7 -11 -10 -24 -7 -29 3 -5 -16
-18 -41 -30 -48 -21 -57 -38 -11 -21 20 8 36 5 77 -16 28 -14 49 -27 46 -30
-2 -2 -18 3 -36 12 -25 13 -45 15 -98 9 l-67 -7 45 -14 c25 -7 57 -11 71 -8
105 23 263 -201 324 -458 22 -93 20 -209 -6 -258 -28 -56 -46 -48 -82 36 -16
39 -33 72 -38 73 -5 2 -9 10 -9 18 0 9 5 12 10 9 7 -4 8 8 4 37 -9 54 -14 61
-14 17 l-1 -34 -14 30 -13 30 -1 -38 c-1 -24 10 -59 28 -95 17 -31 37 -79 46
-105 14 -39 20 -46 31 -36 20 17 17 -2 -6 -31 -11 -15 -20 -19 -20 -11 0 19
-87 209 -113 248 -24 35 -44 45 -27 14 8 -16 6 -20 -13 -23 -20 -4 -18 -6 13
-19 33 -15 71 -49 55 -49 -4 0 -23 9 -41 21 -46 28 -43 18 5 -15 40 -28 81
-90 67 -103 -4 -4 -64 -10 -132 -12 l-124 -3 0 -59 0 -58 38 -6 c146 -23 218
-47 205 -68 -148 -245 -413 -575 -769 -957 -250 -268 -585 -583 -602 -566 -11
12 -14 812 -3 980 11 184 37 275 104 368 61 85 98 119 186 168 76 43 232 90
300 90 55 0 63 10 59 71 l-3 54 -292 3 -293 2 -1 323 c0 177 -1 584 -2 905 -2
321 0 620 3 664 l5 80 149 78 c225 118 470 203 661 229 95 13 317 6 385 -13z
m-3759 -19 c-10 -9 -11 -8 -5 6 3 10 9 15 12 12 3 -3 0 -11 -7 -18z m5283 1
c-5 -7 -9 -15 -9 -18 -1 -3 -5 -25 -10 -50 -5 -25 -8 -48 -7 -52 1 -5 -2 -8
-7 -8 -14 0 -3 78 16 118 9 18 18 31 20 28 3 -3 1 -11 -3 -18z m-5311 -53 c-9
-19 -18 -33 -21 -31 -4 5 26 66 33 66 3 0 -3 -16 -12 -35z m5323 -12 c-11 -11
-19 6 -11 24 8 17 8 17 12 0 3 -10 2 -21 -1 -24z m-7347 -183 l-5 -115 -2 111
c-1 61 1 114 5 117 9 9 9 15 2 -113z m1901 -17 c0 -5 -10 -19 -21 -33 l-20
-25 16 33 c15 30 25 41 25 25z m-1970 -58 c-7 -45 -7 -46 -9 -13 -1 32 8 74
14 66 1 -2 -1 -25 -5 -53z m33 -10 c3 -37 2 -51 -3 -35 -8 25 -13 107 -6 99 2
-2 6 -31 9 -64z m1882 -25 c-9 -16 -18 -30 -21 -30 -2 0 2 14 11 30 9 17 18
30 21 30 2 0 -2 -13 -11 -30z m5302 -2 c-3 -8 -6 -5 -6 6 -1 11 2 17 5 13 3
-3 4 -12 1 -19z m-2600 -1229 l-2 -696 32 14 c25 10 102 13 323 13 159 0 290
-2 290 -5 0 -2 -5 -15 -11 -28 -9 -21 -20 -25 -73 -31 -142 -14 -290 -74 -399
-161 -73 -58 -142 -162 -179 -272 -41 -117 -47 -243 -41 -794 3 -257 3 -478
-1 -493 -3 -14 -11 -26 -17 -26 -7 0 -9 194 -6 613 3 588 4 615 25 689 31 112
73 188 150 270 41 45 55 64 35 50 -88 -62 -201 -240 -230 -363 -16 -67 -17
-133 -15 -680 l3 -606 -93 -75 c-155 -125 -476 -346 -638 -440 -96 -55 -282
-158 -286 -158 -7 0 -2 3383 6 3450 5 47 8 56 10 30 2 -26 4 -29 7 -12 3 12 9
19 15 16 6 -4 9 -1 6 7 -3 8 5 19 16 25 12 6 20 16 19 22 -2 7 0 11 5 9 4 -1
9 3 12 8 9 20 65 72 73 68 8 -5 26 13 44 42 6 11 16 19 22 18 6 -2 10 2 8 8
-1 6 7 16 18 22 28 17 40 30 48 51 4 11 13 16 22 12 8 -3 15 -1 15 4 0 5 9 12
21 15 12 4 18 12 15 21 -3 8 1 14 9 14 8 0 15 5 15 10 0 6 6 10 14 10 7 0 31
17 52 38 22 20 44 37 51 37 6 0 36 24 66 53 31 28 60 52 66 52 6 0 11 7 11 17
0 9 3 14 6 10 7 -7 24 6 61 46 15 15 32 27 40 27 7 0 13 3 13 8 0 4 14 13 31
21 17 7 44 28 61 46 17 20 43 36 63 39 38 7 98 36 76 36 -12 0 -11 3 1 18 9 9
22 30 30 46 14 27 15 21 21 -100 4 -71 7 -506 7 -966 0 -738 2 -838 15 -838
13 0 15 112 15 944 0 519 3 959 7 977 14 62 23 -470 20 -1182z m-2739 1166
c-6 -14 -13 -23 -15 -21 -5 5 15 46 22 46 3 0 -1 -11 -7 -25z m-3367 -170 c41
-13 67 -24 59 -24 -24 -1 -164 39 -175 50 -12 12 13 7 116 -26z m5708 -28 c-2
-1 -15 -11 -29 -22 l-25 -20 19 23 c11 12 24 22 29 22 6 0 8 -1 6 -3z m-4324
-227 c7 -22 6 -23 -7 -10 -19 18 -38 74 -38 109 0 20 -2 23 -10 11 -7 -11 -10
-5 -10 23 0 23 4 36 10 32 6 -4 10 6 11 22 0 15 9 -15 19 -67 10 -52 21 -106
25 -120z m-1883 191 c-21 -13 97 -42 233 -57 66 -8 145 -19 175 -25 30 -5 84
-14 119 -19 73 -10 119 -45 123 -92 2 -19 11 -31 30 -39 30 -12 57 -39 40 -39
-6 0 -57 18 -114 39 -269 102 -502 151 -715 151 -143 0 -382 -43 -523 -94
-213 -78 -512 -310 -654 -509 -65 -91 -162 -271 -204 -377 -41 -104 -88 -296
-103 -421 -13 -115 -7 -439 10 -499 10 -35 10 -35 9 -5 -2 118 3 120 26 9 87
-419 305 -759 676 -1057 298 -239 699 -438 1062 -526 110 -26 152 -34 303 -56
22 -3 122 -9 223 -12 122 -4 180 -9 173 -16 -15 -15 -419 -2 -529 18 -52 9
-96 15 -98 12 -3 -2 31 -10 75 -18 84 -13 117 -26 93 -36 -9 -3 -7 -10 9 -24
19 -16 19 -19 5 -19 -9 0 -14 -4 -11 -10 3 -5 0 -10 -7 -10 -9 0 -9 -3 2 -10
13 -8 12 -10 -5 -11 -17 -1 -17 -2 -2 -6 20 -5 22 -19 5 -26 -10 -4 -9 -8 2
-16 13 -9 12 -11 -3 -11 -10 0 -16 -4 -13 -8 3 -5 -9 -7 -27 -4 -25 3 -29 1
-17 -7 11 -8 2 -9 -32 -5 -27 4 -48 4 -48 1 0 -7 110 -26 240 -41 74 -9 99
-16 85 -21 -28 -13 -270 20 -406 54 -164 42 -352 112 -519 194 -80 39 -151 71
-157 70 -7 0 -10 4 -6 10 4 7 0 8 -13 3 -10 -4 -15 -4 -11 0 10 10 -31 36 -45
28 -7 -4 -8 -3 -4 4 8 13 -47 45 -59 34 -5 -4 -4 -1 0 7 6 11 4 13 -8 8 -9 -3
-19 -1 -23 5 -5 7 -2 8 7 3 8 -4 1 4 -16 19 -32 27 -51 34 -39 14 4 -7 -7 -2
-24 11 -39 28 -42 37 -4 15 25 -15 25 -15 -3 7 -16 13 -37 24 -45 24 -8 0 -15
5 -15 11 0 6 -40 44 -90 86 -405 338 -683 819 -755 1305 -66 454 24 901 252
1253 269 415 645 651 1168 733 50 8 215 7 202 -2z m8945 -225 c-8 -46 -23
-101 -33 -122 -17 -36 -19 -37 -22 -15 -2 14 11 101 30 195 l33 171 3 -73 c2
-40 -4 -110 -11 -156z m-7054 129 c8 -33 18 -69 22 -80 4 -11 -2 -6 -12 10
-11 17 -23 55 -27 85 -9 69 -2 63 17 -15z m4057 -78 c0 -2 -12 -14 -27 -28
l-28 -24 24 28 c23 25 31 32 31 24z m-3625 -76 c-14 -29 -23 -56 -20 -61 3 -6
1 -18 -5 -27 -9 -15 -10 -14 -5 7 6 24 6 25 -10 5 -9 -11 -30 -42 -46 -70 -17
-27 -49 -78 -72 -111 -23 -34 -47 -70 -54 -80 -6 -11 -12 -14 -12 -7 -1 6 32
60 72 120 39 60 95 147 122 195 55 94 71 110 30 29z m3475 -54 c0 -1 -24 -25
-52 -52 l-53 -50 50 53 c46 48 55 57 55 49z m-3509 -91 c10 9 19 14 19 10 0
-12 -76 -121 -96 -136 -16 -14 -16 -13 -5 10 10 20 6 18 -20 -10 -41 -45 -35
-32 26 64 32 51 51 73 53 62 4 -16 5 -16 23 0z m3289 -121 c-24 -25 -46 -45
-49 -45 -3 0 15 20 39 45 24 25 46 45 49 45 3 0 -15 -20 -39 -45z m-3387 -40
c-3 -9 -8 -14 -10 -11 -3 3 -2 9 2 15 9 16 15 13 8 -4z m57 -64 c-26 -52 -33
-52 -15 0 19 53 27 67 32 52 2 -6 -5 -30 -17 -52z m-100 13 c-18 -21 -24 -10
-8 15 7 12 14 17 16 11 2 -6 -2 -17 -8 -26z m5821 -76 c-5 -13 -12 -32 -16
-42 -4 -14 -9 -16 -16 -9 -8 8 -6 20 5 42 19 36 40 43 27 9z m-5770 -55 c-8
-15 -10 -15 -11 -2 0 17 10 32 18 25 2 -3 -1 -13 -7 -23z m5719 -34 c14 -25
40 -66 58 -92 109 -156 211 -428 212 -562 0 -83 -17 -65 -29 31 -19 157 -99
363 -196 500 -25 36 -45 69 -45 74 0 5 -11 12 -25 16 -37 9 -48 27 -34 58 16
35 29 29 59 -25z m-5733 -36 c-3 -10 -5 -4 -5 12 0 17 2 24 5 18 2 -7 2 -21 0
-30z m-181 -205 c12 -14 13 -18 3 -10 -9 6 -19 9 -22 5 -4 -3 -7 1 -7 10 0 22
3 21 26 -5z m7215 -245 c13 -16 12 -17 -3 -4 -10 7 -18 15 -18 17 0 8 8 3 21
-13z m-6513 -115 c-25 -52 -33 -62 -23 -28 7 26 32 70 39 70 2 0 -5 -19 -16
-42z m5322 -267 c18 -35 11 -41 -42 -42 l-53 -1 48 -16 c26 -8 47 -21 47 -29
0 -16 2 -16 -51 2 -24 9 -81 22 -128 30 -68 12 -86 13 -93 3 -4 -8 -8 4 -8 30
l0 42 135 0 c123 0 135 -2 145 -19z m252 -348 c53 -55 89 -122 115 -214 17
-59 18 -116 18 -754 l0 -690 -817 -3 c-491 -1 -818 2 -818 7 0 8 48 51 229
200 91 75 492 477 579 581 247 293 467 605 598 847 21 40 41 73 44 73 3 0 27
-21 52 -47z m-6219 -21 c5 18 8 19 21 9 9 -8 13 -17 10 -22 -3 -5 0 -9 5 -9 6
0 11 -7 11 -15 0 -9 6 -12 15 -8 9 3 15 1 13 -3 -2 -5 7 -22 20 -38 12 -16 22
-25 22 -20 0 13 26 -28 35 -55 5 -16 4 -21 -4 -17 -15 9 -14 1 3 -32 7 -15 16
-49 20 -77 6 -49 6 -49 -9 -25 -9 14 -14 17 -11 8 9 -30 -2 -20 -23 20 -22 40
-27 39 -11 -2 5 -14 6 -26 2 -26 -7 0 -102 192 -102 205 0 3 -16 29 -35 59
-40 63 -46 94 -11 54 23 -26 24 -26 29 -6z m-258 -16 c14 -19 24 -38 23 -44
-2 -5 8 -19 22 -31 l25 -22 -33 18 c-18 10 -40 29 -49 43 -15 23 -15 24 0 11
27 -21 20 0 -10 31 -15 15 -22 28 -15 28 6 0 23 -15 37 -34z m120 -21 c-4 11
-10 27 -13 35 -5 12 0 11 23 -4 27 -18 28 -18 21 0 -6 15 -2 13 20 -6 l27 -25
-12 25 -12 25 21 -25 c31 -36 73 -120 59 -120 -12 0 -8 -50 6 -83 16 -38 -21
-5 -55 49 -19 30 -36 50 -38 44 -3 -7 1 -17 7 -23 6 -6 11 -15 11 -21 0 -18
-48 36 -61 67 -7 18 -26 52 -42 77 l-28 45 36 -40 c23 -24 34 -32 30 -20z
m277 -24 c7 -10 18 -18 23 -18 6 0 15 -10 21 -21 10 -20 10 -20 22 -1 10 16
10 23 -3 36 -23 23 -11 27 19 8 33 -22 122 -128 142 -169 15 -31 15 -31 -3 -7
-10 13 -42 50 -72 83 -44 47 -56 56 -63 43 -11 -19 0 -38 18 -31 8 3 14 1 14
-5 0 -6 4 -8 9 -5 5 3 12 -1 15 -10 3 -8 2 -12 -4 -9 -6 3 -10 1 -10 -4 0 -6
5 -11 10 -11 6 0 10 -14 10 -31 l0 -31 -20 23 -20 24 10 -28 c13 -36 13 -57 0
-37 -14 22 -12 0 5 -55 19 -64 13 -69 -10 -8 -9 27 -24 53 -31 59 -8 6 -32 53
-54 104 -22 51 -45 99 -51 106 -8 9 -8 14 -1 14 6 0 17 -8 24 -19z m292 -17
c3 -8 2 -12 -4 -9 -6 3 -10 10 -10 16 0 14 7 11 14 -7z m-754 -35 c27 -15 -32
-9 -65 6 l-30 14 40 -6 c22 -3 47 -9 55 -14z m0 -25 c54 -8 95 -27 104 -49 3
-9 11 -15 18 -14 7 1 24 -3 38 -9 l25 -11 -31 0 c-17 -1 -51 6 -74 14 -51 18
-53 18 -45 5 14 -23 -51 4 -92 37 -24 19 -43 37 -43 39 0 3 12 3 28 0 15 -3
47 -8 72 -12z m360 -48 c0 -12 -5 -7 -19 24 -11 24 -11 24 3 6 9 -11 16 -24
16 -30z m3328 -451 c1 -170 -3 -301 -7 -290 -12 29 -25 604 -15 656 l8 44 7
-50 c4 -27 7 -189 7 -360z m-3170 370 c-3 -3 -9 2 -12 12 -6 14 -5 15 5 6 7
-7 10 -15 7 -18z m6241 -310 c5 -88 9 -377 10 -642 l0 -483 -807 1 c-693 1
-1065 8 -972 19 122 13 513 22 1067 23 363 1 657 4 652 7 -4 3 -8 132 -7 287
0 219 3 288 14 309 11 21 14 97 15 363 1 359 12 403 28 116z m-8039 -25 c-6
-11 -13 -20 -16 -20 -2 0 0 9 6 20 6 11 13 20 16 20 2 0 0 -9 -6 -20z m1641
-6 l34 -15 -35 6 c-19 3 -39 10 -44 15 -15 15 7 12 45 -6z m128 -30 c2 -2 -12
-4 -32 -4 -20 0 -37 4 -37 10 0 8 58 3 69 -6z m551 -427 c0 -9 -36 9 -45 23
-3 6 -3 15 1 21 4 8 13 4 25 -12 10 -13 19 -28 19 -32z m2656 -860 c-3 -203
-19 -270 -29 -125 -8 106 1 713 10 753 10 41 23 -392 19 -628z m1115 31 c1 -2
5 -491 9 -1088 9 -1157 10 -1186 60 -1345 75 -238 238 -395 472 -454 42 -11
106 -21 142 -23 54 -2 66 -6 66 -20 0 -9 -4 -19 -8 -22 -5 -3 -620 -7 -1366
-9 -1310 -5 -1358 -5 -1371 -23 -13 -17 -14 -15 -15 22 l0 41 76 7 c167 15
352 78 481 162 158 105 260 255 288 424 10 65 15 265 18 837 4 486 9 758 16
770 13 24 17 -178 17 -980 0 -345 -3 -622 -8 -615 -4 7 -5 -1 -2 -20 9 -46
-39 -189 -88 -263 -22 -32 -69 -86 -106 -120 -37 -35 -53 -53 -37 -41 116 82
202 210 240 358 28 111 35 299 36 1049 1 413 5 777 9 810 4 33 8 52 9 43 1
-15 11 -13 84 13 45 16 98 37 117 46 19 9 37 16 40 16 3 -1 14 4 25 10 11 6
30 12 43 14 31 3 111 41 139 66 12 10 26 16 31 13 6 -3 26 3 46 15 20 11 43
22 52 23 8 1 19 7 22 12 7 11 36 25 60 30 8 1 22 10 31 18 10 9 24 16 31 16 7
0 27 11 44 23 44 33 81 52 71 37 -4 -7 4 -5 17 4 14 9 28 13 31 9 4 -3 7 -1 7
6 0 7 5 9 10 6 6 -3 10 -2 10 4 0 6 7 7 17 4 10 -4 14 -2 9 5 -3 6 2 13 11 16
10 3 25 18 34 32 14 24 16 -22 22 -562 4 -323 7 -781 7 -1018 0 -606 16 -751
105 -935 37 -77 60 -108 123 -170 79 -79 178 -140 258 -160 21 -5 57 -15 79
-20 84 -22 86 -9 3 19 -198 66 -311 153 -410 315 -80 131 -106 264 -118 590
-13 365 -13 2005 0 2005 6 0 10 -1 11 -2z m-1322 -2624 c-54 -56 -61 -56 -15
-2 20 23 36 46 36 50 0 5 5 6 11 2 7 -4 -6 -23 -32 -50z"/>
<path d="M10452 7915 c0 -16 2 -22 5 -12 2 9 2 23 0 30 -3 6 -5 -1 -5 -18z"/>
<path d="M10462 7855 c0 -16 2 -22 5 -12 2 9 2 23 0 30 -3 6 -5 -1 -5 -18z"/>
<path d="M10481 7654 c0 -11 3 -14 6 -6 3 7 2 16 -1 19 -3 4 -6 -2 -5 -13z"/>
<path d="M6700 6795 c-41 -41 -72 -75 -69 -75 2 0 38 34 79 75 41 41 72 75 69
75 -2 0 -38 -34 -79 -75z"/>
<path d="M10196 6575 c-9 -26 -7 -32 5 -12 6 10 9 21 6 23 -2 3 -7 -2 -11 -11z"/>
<path d="M10175 6529 c-4 -6 -5 -12 -2 -15 2 -3 7 2 10 11 7 17 1 20 -8 4z"/>
<path d="M10236 6425 c-9 -26 -7 -32 5 -12 6 10 9 21 6 23 -2 3 -7 -2 -11 -11z"/>
<path d="M10101 6390 c-12 -22 -20 -40 -18 -40 7 0 48 72 44 76 -2 2 -14 -14
-26 -36z"/>
<path d="M9984 6198 c-74 -114 -76 -118 -70 -118 5 0 105 150 125 188 25 46 3
19 -55 -70z"/>
<path d="M9470 7655 c0 -8 2 -15 4 -15 2 0 6 7 10 15 3 8 1 15 -4 15 -6 0 -10
-7 -10 -15z"/>
<path d="M9583 7630 c29 -23 27 -52 -6 -75 -19 -13 -19 -15 -4 -15 10 0 35 16
55 37 20 20 29 33 20 30 -12 -4 -27 3 -42 18 -14 14 -30 25 -37 25 -6 0 0 -9
14 -20z"/>
<path d="M9745 7574 c6 -5 28 -25 50 -44 l40 -35 -30 33 c-17 19 -39 38 -50
44 -11 6 -15 7 -10 2z"/>
<path d="M9420 7531 c0 -6 5 -13 10 -16 6 -3 10 -11 10 -16 0 -6 -4 -7 -10 -4
-11 7 -13 -6 -4 -28 4 -12 9 -11 29 6 l23 21 -24 23 c-27 25 -34 28 -34 14z"/>
<path d="M9512 7510 c-25 -21 -28 -30 -9 -30 18 0 51 36 40 43 -4 3 -18 -3
-31 -13z"/>
<path d="M10191 7420 c0 -8 4 -22 9 -30 12 -18 12 -2 0 25 -6 13 -9 15 -9 5z"/>
<path d="M9430 7282 c0 -19 62 -93 98 -117 31 -21 44 -24 63 -16 27 11 26 12
-16 17 -37 4 -71 29 -112 83 -18 23 -33 38 -33 33z"/>
<path d="M10068 7235 c-6 -30 -3 -43 8 -33 3 4 4 19 2 35 l-3 28 -7 -30z"/>
<path d="M10043 7125 c0 -22 2 -30 4 -17 2 12 2 30 0 40 -3 9 -5 -1 -4 -23z"/>
<path d="M10120 7103 c0 -12 5 -25 10 -28 13 -8 13 15 0 35 -8 12 -10 11 -10
-7z"/>
<path d="M10151 7084 c0 -11 3 -14 6 -6 3 7 2 16 -1 19 -3 4 -6 -2 -5 -13z"/>
<path d="M10063 7019 c3 -9 11 -42 18 -73 8 -31 17 -56 20 -56 9 0 -22 123
-34 135 -7 7 -8 5 -4 -6z"/>
<path d="M9637 6839 c7 -7 15 -10 18 -7 3 3 -2 9 -12 12 -14 6 -15 5 -6 -5z"/>
<path d="M9705 6820 c-19 -7 -19 -8 -2 -15 19 -8 31 -2 26 13 -2 5 -13 6 -24
2z"/>
<path d="M9791 6783 c6 -10 23 -27 37 -37 21 -15 20 -12 -7 17 -38 41 -47 46
-30 20z"/>
<path d="M9610 6755 c0 -8 7 -15 15 -15 8 0 15 4 15 9 0 5 -7 11 -15 15 -9 3
-15 0 -15 -9z"/>
<path d="M9851 6691 c-1 -27 2 -32 11 -23 8 8 8 17 0 34 -10 22 -11 21 -11
-11z"/>
<path d="M9650 6610 c0 -5 5 -10 11 -10 5 0 7 5 4 10 -3 6 -8 10 -11 10 -2 0
-4 -4 -4 -10z"/>
<path d="M9727 6539 c7 -7 15 -10 18 -7 3 3 -2 9 -12 12 -14 6 -15 5 -6 -5z"/>
<path d="M8694 6214 c-18 -14 -18 -15 4 -4 12 6 22 13 22 15 0 8 -5 6 -26 -11z"/>
<path d="M331 5904 c0 -11 3 -14 6 -6 3 7 2 16 -1 19 -3 4 -6 -2 -5 -13z"/>
<path d="M2148 4133 c7 -3 16 -2 19 1 4 3 -2 6 -13 5 -11 0 -14 -3 -6 -6z"/>
<path d="M6960 1233 c-52 -25 -144 -61 -205 -79 -65 -20 -91 -32 -65 -28 104
15 344 110 366 145 7 12 11 14 -96 -38z"/>
<path d="M8138 1133 c6 -2 18 -2 25 0 6 3 1 5 -13 5 -14 0 -19 -2 -12 -5z"/>
<path d="M8748 1133 c12 -2 32 -2 45 0 12 2 2 4 -23 4 -25 0 -35 -2 -22 -4z"/>
<path d="M1393 11763 c31 -2 83 -2 115 0 31 2 5 3 -58 3 -63 0 -89 -1 -57 -3z"/>
<path d="M3008 11763 c12 -2 32 -2 45 0 12 2 2 4 -23 4 -25 0 -35 -2 -22 -4z"/>
<path d="M3118 11763 c17 -2 47 -2 65 0 17 2 3 4 -33 4 -36 0 -50 -2 -32 -4z"/>
<path d="M3248 11763 c12 -2 32 -2 45 0 12 2 2 4 -23 4 -25 0 -35 -2 -22 -4z"/>
<path d="M7729 11638 c-6 -13 -27 -51 -46 -85 -19 -35 -32 -63 -30 -63 3 0 20
25 37 55 17 30 35 53 39 51 4 -3 7 5 7 17 -1 12 4 21 11 20 7 -2 10 4 7 12 -8
20 -11 19 -25 -7z"/>
<path d="M7608 11423 c-43 -70 -80 -143 -73 -143 2 0 14 18 25 40 20 39 38 56
26 24 -3 -9 -2 -12 5 -9 6 4 8 14 5 21 -3 8 8 39 25 69 41 73 31 71 -13 -2z"/>
<path d="M7505 11244 c-9 -15 -12 -23 -6 -20 11 7 35 46 28 46 -3 0 -12 -12
-22 -26z"/>
<path d="M9940 11240 c0 -5 5 -10 10 -10 6 0 10 5 10 10 0 6 -4 10 -10 10 -5
0 -10 -4 -10 -10z"/>
<path d="M9994 11221 c16 -11 35 -17 43 -14 10 4 1 11 -24 19 -51 18 -53 17
-19 -5z"/>
<path d="M7474 11192 c-36 -59 -75 -132 -71 -132 7 0 88 142 84 146 -1 2 -7
-5 -13 -14z"/>
<path d="M10105 11193 c8 -27 2 -28 -32 -6 -26 17 -26 17 -14 -5 13 -24 3 -29
-19 -9 -8 6 -7 3 3 -9 18 -22 22 -44 8 -44 -16 0 -21 -31 -6 -36 18 -7 74 54
75 81 0 11 -5 27 -11 35 -8 12 -9 10 -4 -7z"/>
<path d="M10210 11128 c45 -41 63 -67 81 -120 10 -29 18 -45 19 -35 1 46 -61
147 -103 168 -20 10 -19 8 3 -13z"/>
<path d="M9888 11094 c-2 -18 4 -36 15 -47 18 -18 20 -18 37 -2 13 12 29 16
47 12 26 -5 26 -4 8 9 -10 8 -24 14 -31 14 -6 0 -17 7 -24 15 -7 8 -17 12 -22
9 -6 -4 -14 -1 -18 6 -6 9 -9 4 -12 -16z"/>
<path d="M7360 10990 c-6 -11 -8 -20 -6 -20 3 0 10 9 16 20 6 11 8 20 6 20 -3
0 -10 -9 -16 -20z"/>
<path d="M7307 10903 c-68 -114 -110 -196 -97 -188 10 6 12 4 7 -8 -9 -24 0
-21 14 4 8 15 8 19 0 15 -17 -11 -12 6 14 49 14 22 30 40 37 40 7 0 12 9 11
20 -2 25 15 57 27 50 5 -3 14 4 20 16 8 15 9 19 1 15 -14 -9 -14 0 -1 25 24
43 -1 15 -33 -38z"/>
<path d="M9899 10823 c17 -29 33 -46 86 -89 69 -57 86 -64 146 -64 49 0 57 -3
96 -42 24 -23 43 -50 43 -59 0 -9 9 -24 20 -34 29 -26 64 -85 55 -93 -4 -4
-20 9 -36 28 -16 19 -29 31 -29 27 0 -3 27 -36 59 -72 32 -35 64 -79 70 -97
l11 -33 -31 35 -30 35 27 -42 c14 -24 30 -40 35 -37 5 3 6 -1 3 -9 -3 -8 1
-14 10 -14 12 0 12 6 1 36 -27 75 -194 403 -217 427 -4 3 -17 0 -30 -7 -12 -7
-26 -12 -31 -11 -4 1 -28 -3 -53 -8 -25 -6 -50 -7 -56 -3 -17 10 19 21 68 22
30 1 47 8 64 26 21 22 22 27 10 55 -15 35 -36 53 -26 22 14 -44 -3 -70 -55
-86 -70 -20 -112 -7 -172 56 -27 27 -44 41 -38 31z"/>
<path d="M7145 10618 c-60 -102 -57 -98 -51 -98 3 0 13 14 21 30 9 17 20 28
25 25 5 -3 12 0 16 6 4 8 3 9 -4 5 -18 -11 -15 0 19 59 17 30 29 55 26 55 -2
0 -26 -37 -52 -82z"/>
<path d="M10431 10580 c-1 -14 -4 -36 -8 -49 -4 -16 -3 -22 5 -18 5 4 13 1 15
-5 8 -20 6 33 -3 67 -7 28 -8 28 -9 5z"/>
<path d="M10910 10530 c0 -5 5 -10 11 -10 5 0 7 5 4 10 -3 6 -8 10 -11 10 -2
0 -4 -4 -4 -10z"/>
<path d="M10952 10528 c-6 -6 -12 -16 -12 -22 0 -5 3 -6 7 -3 3 4 15 -1 26
-10 19 -17 20 -17 10 2 -6 11 -12 26 -14 33 -3 10 -7 10 -17 0z"/>
<path d="M7066 10459 c3 -5 0 -18 -6 -29 -6 -11 -8 -20 -6 -20 3 0 12 13 20
28 13 24 13 29 1 29 -8 0 -12 -4 -9 -8z"/>
<path d="M10827 10459 c-40 -23 -58 -119 -20 -105 8 3 19 6 24 6 5 0 9 16 9
36 0 31 -2 35 -15 24 -12 -10 -15 -10 -15 3 0 8 10 22 23 30 25 18 21 22 -6 6z"/>
<path d="M6995 10358 c-89 -155 -108 -191 -95 -183 10 6 12 3 7 -11 -7 -18 -6
-18 9 1 23 30 47 78 35 71 -20 -12 -12 8 33 82 24 41 46 68 48 61 3 -9 6 -8
11 5 4 10 3 15 -3 11 -13 -8 -13 1 0 26 6 10 9 19 6 19 -2 0 -25 -37 -51 -82z
m-65 -158 c-6 -12 -14 -19 -17 -17 -2 3 1 15 7 27 6 12 14 19 17 17 2 -3 -1
-15 -7 -27z"/>
<path d="M10451 10430 c0 -14 28 -72 29 -59 0 4 -7 22 -15 40 -8 19 -14 27
-14 19z"/>
<path d="M10876 10365 c-3 -9 -6 -26 -5 -38 1 -16 4 -12 10 12 10 34 6 55 -5
26z"/>
<path d="M7070 10340 c-6 -11 -8 -20 -6 -20 3 0 10 9 16 20 6 11 8 20 6 20 -3
0 -10 -9 -16 -20z"/>
<path d="M10445 10215 c4 -11 26 -72 50 -135 79 -213 165 -525 231 -840 4 -16
2 -21 -4 -15 -18 19 -197 260 -225 303 -16 25 -32 40 -39 36 -6 -4 -8 -3 -5 3
4 6 1 29 -7 50 -8 22 -19 72 -25 112 -6 39 -17 86 -25 104 l-13 32 3 -50 c3
-34 1 -44 -4 -30 -8 17 -10 14 -16 -18 -4 -21 -11 -35 -16 -32 -6 3 -7 -1 -4
-9 8 -20 -3 -20 -38 -2 -22 12 -15 0 31 -53 53 -63 107 -130 278 -355 65 -84
119 -182 152 -277 26 -71 26 -42 1 68 -11 48 -35 160 -55 248 -19 88 -44 192
-54 230 -82 304 -154 523 -195 600 -15 28 -24 41 -21 30z m-44 -562 c-8 -14
-10 -7 -11 33 0 28 3 54 8 58 11 12 14 -72 3 -91z"/>
<path d="M6875 10110 c-9 -16 -13 -30 -11 -30 3 0 12 14 21 30 9 17 13 30 11
30 -3 0 -12 -13 -21 -30z"/>
<path d="M6807 10033 c-57 -100 -79 -143 -72 -143 2 0 14 18 25 40 12 23 25
38 30 35 5 -3 12 0 16 6 4 8 3 9 -4 5 -15 -9 -15 -1 -1 25 5 11 15 16 21 13 7
-4 8 -3 4 4 -4 6 3 29 14 52 34 67 14 45 -33 -37z"/>
<path d="M10705 10080 c9 -31 11 -33 24 -29 5 2 0 15 -11 29 l-21 25 8 -25z"/>
<path d="M10015 10010 c3 -5 11 -10 16 -10 6 0 7 5 4 10 -3 6 -11 10 -16 10
-6 0 -7 -4 -4 -10z"/>
<path d="M10088 10013 c7 -3 16 -2 19 1 4 3 -2 6 -13 5 -11 0 -14 -3 -6 -6z"/>
<path d="M9982 9990 c0 -14 2 -19 5 -12 2 6 2 18 0 25 -3 6 -5 1 -5 -13z"/>
<path d="M10749 9982 c6 -12 16 -48 20 -80 l9 -57 1 61 c1 51 -3 64 -20 80
-22 19 -22 19 -10 -4z"/>
<path d="M10140 9980 c-12 -8 -11 -10 8 -10 12 0 22 5 22 10 0 13 -11 13 -30
0z"/>
<path d="M10285 9964 c6 -5 28 -25 50 -44 l40 -35 -30 33 c-17 19 -39 38 -50
44 -11 6 -15 7 -10 2z"/>
<path d="M10090 9905 c0 -5 5 -17 10 -25 5 -8 10 -10 10 -5 0 6 -5 17 -10 25
-5 8 -10 11 -10 5z"/>
<path d="M9976 9861 c3 -36 10 -48 20 -38 4 4 2 12 -4 19 -5 7 -12 22 -15 33
-2 11 -3 5 -1 -14z"/>
<path d="M6659 9771 c-101 -174 -110 -191 -105 -191 3 0 29 40 58 89 29 49 56
87 60 85 3 -2 10 1 14 7 4 8 3 9 -4 5 -16 -10 -15 -1 3 35 9 16 20 27 25 24 6
-4 7 1 3 11 -4 11 -3 15 5 10 6 -3 15 2 21 12 8 14 6 19 -5 19 -8 0 -42 -48
-75 -106z"/>
<path d="M10000 9870 c1 -3 7 -16 15 -30 l13 -25 11 28 c6 16 11 29 11 30 0 1
-11 2 -25 2 -14 0 -25 -2 -25 -5z"/>
<path d="M10762 9820 c0 -14 2 -19 5 -12 2 6 2 18 0 25 -3 6 -5 1 -5 -13z"/>
<path d="M10752 9770 c0 -14 2 -19 5 -12 2 6 2 18 0 25 -3 6 -5 1 -5 -13z"/>
<path d="M10255 9751 c6 -11 4 -13 -11 -7 -15 6 -14 1 7 -21 37 -39 55 -76 40
-81 -6 -2 -11 -10 -11 -18 0 -8 -8 -14 -17 -14 -10 0 -25 -5 -33 -10 -10 -6 8
-8 55 -5 60 4 65 3 35 -6 -19 -5 -50 -15 -69 -21 -22 -7 -40 -7 -55 0 -11 5
-40 15 -64 21 -53 15 -110 64 -133 116 -10 22 -19 34 -19 27 0 -26 30 -71 76
-111 53 -47 111 -67 222 -77 94 -9 139 -37 234 -149 89 -105 148 -199 205
-328 65 -147 83 -267 84 -582 2 -213 3 -237 11 -160 20 202 -13 565 -63 695
-75 195 -247 442 -354 509 -50 31 -50 40 -1 21 14 -5 26 -7 26 -4 0 3 -36 48
-80 100 -45 51 -80 96 -80 99 1 4 -2 10 -6 13 -4 4 -3 1 1 -7z"/>
<path d="M10742 9715 c0 -16 2 -22 5 -12 2 9 2 23 0 30 -3 6 -5 -1 -5 -18z"/>
<path d="M6482 9468 c-164 -282 -271 -472 -247 -443 9 11 20 20 25 20 4 0 12
4 17 9 5 5 3 6 -4 2 -18 -10 -16 6 3 30 13 16 15 16 10 2 -7 -25 1 -22 15 3 8
15 8 19 0 15 -14 -9 -14 0 0 25 5 11 15 16 21 13 7 -4 8 -3 4 4 -10 16 22 74
36 66 7 -4 8 -3 4 4 -4 7 -2 20 3 29 8 14 10 15 11 3 0 -8 15 10 33 40 70 117
100 173 87 165 -8 -5 -11 -3 -8 6 3 8 11 13 17 11 7 -1 10 2 6 7 -3 6 4 28 15
51 37 73 13 41 -48 -62z m-43 -117 c-29 -50 -55 -89 -57 -87 -2 2 20 45 49 95
28 51 54 90 56 87 3 -2 -19 -45 -48 -95z"/>
<path d="M10955 9540 c-3 -5 -1 -10 4 -10 6 0 11 5 11 10 0 6 -2 10 -4 10 -3
0 -8 -4 -11 -10z"/>
<path d="M11000 9508 c-11 -18 -20 -37 -20 -42 0 -5 1 -7 3 -5 2 2 15 21 30
42 16 20 23 37 17 37 -5 0 -19 -15 -30 -32z"/>
<path d="M10827 9445 c-24 -50 -20 -58 4 -12 11 22 19 41 17 43 -3 2 -12 -12
-21 -31z"/>
<path d="M10931 9411 c-10 -7 -7 -9 12 -8 14 1 23 5 20 10 -6 9 -15 9 -32 -2z"/>
<path d="M10943 9378 c-6 -7 -16 -24 -22 -38 -12 -24 -12 -24 4 -5 20 24 37
55 32 55 -3 0 -9 -6 -14 -12z"/>
<path d="M10852 9315 c-15 -32 -15 -30 6 -32 10 -1 24 8 31 19 11 18 10 19 -8
13 -16 -5 -20 -3 -15 9 10 26 -2 18 -14 -9z"/>
<path d="M12092 9196 c-46 -33 -53 -43 -14 -20 19 10 38 25 44 32 15 17 8 14
-30 -12z"/>
<path d="M11990 9135 c-25 -13 -41 -24 -37 -25 11 0 87 39 87 45 0 7 0 7 -50
-20z"/>
<path d="M11900 9100 c-18 -12 -2 -12 25 0 13 6 15 9 5 9 -8 0 -22 -4 -30 -9z"/>
<path d="M8647 9046 c-53 -22 -79 -36 -65 -36 7 0 132 51 137 56 10 10 -19 2
-72 -20z"/>
<path d="M11725 9050 l-20 -9 20 0 c11 0 29 4 40 9 l20 9 -20 0 c-11 0 -29 -4
-40 -9z"/>
<path d="M10405 8999 c-4 -6 -5 -12 -2 -15 2 -3 7 2 10 11 7 17 1 20 -8 4z"/>
<path d="M11578 8997 c-16 -6 -28 -15 -28 -19 0 -7 55 16 69 28 7 7 -13 2 -41
-9z"/>
<path d="M11675 9000 c-3 -6 1 -7 9 -4 18 7 21 14 7 14 -6 0 -13 -4 -16 -10z"/>
<path d="M10514 8970 c3 -14 6 -43 7 -65 1 -38 2 -38 8 -10 6 28 7 29 19 10
21 -36 12 -11 -14 40 -15 28 -24 39 -20 25z"/>
<path d="M11588 8965 c-26 -14 -49 -29 -52 -34 -5 -7 97 43 113 56 14 11 -21
-2 -61 -22z"/>
<path d="M1528 8963 c6 -2 18 -2 25 0 6 3 1 5 -13 5 -14 0 -19 -2 -12 -5z"/>
<path d="M11440 8945 c-25 -13 -38 -24 -30 -24 8 0 33 11 55 24 51 32 34 32
-25 0z"/>
<path d="M1695 8950 c11 -5 29 -9 40 -9 17 -1 17 1 5 9 -8 5 -26 9 -40 9 -23
0 -23 -1 -5 -9z"/>
<path d="M1815 8930 c11 -5 27 -9 35 -9 9 0 8 4 -5 9 -11 5 -27 9 -35 9 -9 0
-8 -4 5 -9z"/>
<path d="M11744 8768 c-358 -363 -592 -653 -755 -935 -26 -45 -45 -83 -41 -83
4 0 27 20 51 44 24 25 70 56 103 71 32 14 56 30 54 34 -3 4 11 13 31 20 25 9
32 16 22 21 -10 7 -10 11 1 25 12 15 10 16 -16 10 -22 -5 -18 -1 15 14 24 12
51 21 60 22 9 1 6 4 -9 9 -19 6 -21 8 -6 9 11 1 17 4 13 7 -3 3 -15 3 -28 -1
-15 -5 -18 -9 -9 -15 7 -4 -6 -7 -28 -6 -23 0 -36 4 -30 7 7 4 6 8 -3 11 -8 3
-3 11 15 24 15 10 37 27 49 36 22 17 22 17 -11 8 -43 -12 -39 6 9 39 19 13 26
21 16 18 -21 -8 -19 -3 32 66 19 26 42 49 53 53 10 3 16 10 12 15 -9 15 237
297 455 521 68 71 122 128 120 128 -2 0 -81 -78 -175 -172z"/>
<path d="M1101 8896 c2 -2 38 -6 79 -9 46 -3 63 -2 45 3 -30 8 -132 13 -124 6z"/>
<path d="M11285 8845 c-27 -24 -45 -44 -40 -45 6 0 31 20 55 45 56 57 49 57
-15 0z"/>
<path d="M1268 8873 c7 -3 16 -2 19 1 4 3 -2 6 -13 5 -11 0 -14 -3 -6 -6z"/>
<path d="M2021 8866 c2 -2 15 -9 29 -15 24 -11 24 -11 6 3 -16 13 -49 24 -35
12z"/>
<path d="M10566 8850 c4 -14 8 -44 9 -67 1 -23 6 -48 12 -55 6 -7 15 -33 21
-58 7 -34 10 -38 11 -17 1 15 -6 44 -14 64 -8 19 -15 50 -15 67 -1 17 -7 45
-16 61 -12 25 -13 26 -8 5z"/>
<path d="M1377 8836 c55 -26 113 -67 176 -126 21 -19 35 -27 32 -18 -7 18
-134 117 -180 140 -16 9 -41 18 -55 22 -14 3 -1 -5 27 -18z"/>
<path d="M1540 8820 c30 -16 60 -29 65 -29 6 0 -15 13 -45 29 -30 16 -59 29
-65 29 -5 0 15 -13 45 -29z"/>
<path d="M10419 8812 c-27 -31 -28 -56 -3 -87 l22 -28 -1 66 c-1 37 -2 67 -2
67 0 0 -8 -8 -16 -18z"/>
<path d="M2185 8767 c28 -25 52 -43 55 -40 6 6 -55 59 -85 75 -11 5 3 -10 30
-35z"/>
<path d="M11184 8748 l-29 -33 33 29 c30 28 37 36 29 36 -2 0 -16 -15 -33 -32z"/>
<path d="M11967 8743 c-4 -3 -7 -11 -7 -17 0 -6 5 -5 12 2 6 6 9 14 7 17 -3 3
-9 2 -12 -2z"/>
<path d="M2335 8638 c32 -38 60 -68 63 -68 6 0 -73 93 -99 115 -13 11 3 -10
36 -47z"/>
<path d="M1610 8657 c0 -8 120 -157 127 -157 6 0 -51 78 -92 125 -19 22 -34
37 -35 32z"/>
<path d="M11099 8643 c-13 -16 -12 -17 4 -4 9 7 17 15 17 17 0 8 -8 3 -21 -13z"/>
<path d="M2864 8550 c0 -58 1 -81 3 -52 2 28 2 76 0 105 -2 28 -3 5 -3 -53z"/>
<path d="M11050 8570 c-6 -11 -8 -20 -6 -20 3 0 10 9 16 20 6 11 8 20 6 20 -3
0 -10 -9 -16 -20z"/>
<path d="M11864 8564 c-18 -14 -18 -15 4 -4 12 6 22 13 22 15 0 8 -5 6 -26
-11z"/>
<path d="M11886 8555 c-11 -8 -15 -15 -9 -15 6 0 16 7 23 15 16 19 11 19 -14
0z"/>
<path d="M2425 8523 c15 -24 30 -43 32 -43 7 0 -31 61 -46 73 -8 7 -2 -7 14
-30z"/>
<path d="M11900 8540 c-8 -4 -26 -13 -40 -19 -24 -11 -24 -11 5 -6 17 4 37 13
45 21 16 16 13 17 -10 4z"/>
<path d="M11015 8510 c-9 -16 -13 -30 -11 -30 3 0 12 14 21 30 9 17 13 30 11
30 -3 0 -12 -13 -21 -30z"/>
<path d="M1777 8430 c32 -47 80 -96 87 -89 2 2 -23 33 -57 69 -53 57 -57 60
-30 20z"/>
<path d="M2245 8330 c10 -11 20 -20 23 -20 3 0 -3 9 -13 20 -10 11 -20 20 -23
20 -3 0 3 -9 13 -20z"/>
<path d="M2315 8260 c21 -22 41 -40 44 -40 3 0 -13 18 -34 40 -21 22 -41 40
-44 40 -3 0 13 -18 34 -40z"/>
<path d="M3752 8213 c-23 -49 -44 -101 -47 -118 -3 -16 3 -7 14 20 10 28 33
79 51 113 18 35 30 65 28 67 -3 3 -23 -34 -46 -82z"/>
<path d="M11734 8246 c-3 -8 -12 -12 -19 -10 -7 3 -16 1 -20 -5 -4 -7 1 -8 12
-4 14 5 13 0 -7 -23 -14 -17 -7 -13 18 11 23 21 42 40 42 42 0 10 -22 1 -26
-11z"/>
<path d="M2090 8165 c17 -21 78 -57 89 -53 4 2 -16 18 -46 35 -30 18 -50 26
-43 18z"/>
<path d="M4234 8155 c2 -16 10 -61 17 -98 9 -49 9 -77 1 -102 -5 -19 -6 -37
-2 -40 26 -16 22 146 -6 228 -10 32 -13 35 -10 12z"/>
<path d="M11344 7995 c-10 -8 -14 -15 -7 -15 19 0 43 11 43 21 0 13 -14 11
-36 -6z"/>
<path d="M11850 7980 c0 -6 11 -8 28 -4 39 10 40 14 4 14 -18 0 -32 -5 -32
-10z"/>
<path d="M11665 7965 c-40 -18 -16 -19 26 0 19 8 27 14 19 14 -8 0 -28 -6 -45
-14z"/>
<path d="M12000 7970 c14 -9 109 -15 99 -6 -2 2 -29 6 -59 9 -37 4 -50 3 -40
-3z"/>
<path d="M12165 7914 c-33 -20 -86 -56 -119 -81 -32 -24 -74 -50 -92 -56 -21
-8 -31 -16 -26 -24 5 -8 40 12 110 63 57 41 121 83 142 94 21 11 41 24 45 30
8 13 10 14 -60 -26z"/>
<path d="M3662 7900 c0 -19 2 -27 5 -17 2 9 2 25 0 35 -3 9 -5 1 -5 -18z"/>
<path d="M11198 7903 c7 -3 16 -2 19 1 4 3 -2 6 -13 5 -11 0 -14 -3 -6 -6z"/>
<path d="M11434 7882 c-38 -21 -121 -92 -108 -92 6 0 23 14 40 31 16 17 46 40
67 50 20 11 37 22 37 24 0 7 -1 6 -36 -13z"/>
<path d="M3653 7805 c0 -27 2 -38 4 -22 2 15 2 37 0 50 -2 12 -4 0 -4 -28z"/>
<path d="M4091 7745 c-29 -33 -36 -45 -28 -45 2 0 18 18 36 40 40 49 34 53 -8
5z"/>
<path d="M11255 7740 c-16 -16 -25 -30 -19 -29 8 0 60 59 52 59 -3 0 -17 -13
-33 -30z"/>
<path d="M11853 7679 c-26 -28 -47 -55 -46 -59 3 -12 -136 -140 -171 -157 -18
-8 -38 -24 -45 -35 -15 -24 -12 -22 63 30 53 37 138 118 171 163 11 15 35 46
53 68 47 57 33 51 -25 -10z"/>
<path d="M11158 7623 c-31 -49 -88 -158 -88 -169 0 -5 16 20 36 56 20 36 47
84 60 108 31 52 25 55 -8 5z"/>
<path d="M11394 7554 c-18 -14 -18 -15 4 -4 12 6 22 13 22 15 0 8 -5 6 -26
-11z"/>
<path d="M4534 7524 c-10 -8 -13 -12 -5 -8 8 4 28 11 45 15 29 6 29 7 5 8 -14
1 -34 -6 -45 -15z"/>
<path d="M2655 6870 c0 -366 1 -515 2 -332 2 182 2 482 0 665 -1 182 -2 33 -2
-333z"/>
<path d="M11290 7519 c0 -5 5 -7 10 -4 6 3 10 8 10 11 0 2 -4 4 -10 4 -5 0
-10 -5 -10 -11z"/>
<path d="M11255 7500 c-3 -5 -1 -10 4 -10 6 0 11 5 11 10 0 6 -2 10 -4 10 -3
0 -8 -4 -11 -10z"/>
<path d="M4561 7452 c-7 -16 -11 -55 -9 -87 l3 -59 28 37 28 37 -21 27 c-14
18 -19 35 -15 50 8 32 0 29 -14 -5z"/>
<path d="M11160 7430 c-36 -27 -68 -47 -71 -44 -3 2 -16 -10 -28 -26 -12 -17
-19 -30 -15 -30 5 0 71 50 183 137 2 2 2 5 0 7 -2 2 -33 -18 -69 -44z"/>
<path d="M11143 7379 c-131 -100 -139 -107 -86 -80 22 11 43 24 45 29 1 4 35
32 73 62 82 62 91 70 82 70 -3 0 -55 -37 -114 -81z"/>
<path d="M2882 6730 c-2 -711 4 -848 42 -1015 80 -348 260 -572 526 -655 52
-17 110 -30 130 -29 29 0 24 4 -35 20 -217 61 -398 214 -503 425 -64 128 -111
309 -133 519 -6 63 -14 392 -18 765 l-7 655 -2 -685z"/>
<path d="M4301 7157 c-2 -24 23 -97 29 -87 5 9 10 6 15 -9 11 -36 25 -23 24
22 -1 30 -3 36 -7 19 -7 -22 -8 -22 -22 -5 -8 10 -20 29 -27 43 -6 14 -12 21
-12 17z"/>
<path d="M11230 7033 c-24 -10 -66 -53 -51 -53 8 0 11 -7 8 -20 -3 -11 -1 -18
4 -14 5 3 9 16 9 29 0 14 11 32 28 44 28 21 28 24 2 14z"/>
<path d="M11508 7009 c12 -14 22 -35 22 -46 0 -11 11 -28 25 -37 14 -9 25 -12
25 -7 0 5 -5 13 -11 16 -6 4 -9 12 -6 19 2 6 -15 27 -37 46 -25 21 -32 24 -18
9z"/>
<path d="M11078 6918 c-7 -13 -19 -36 -28 -53 -11 -22 -30 -36 -75 -53 -33
-12 -46 -20 -30 -17 17 3 50 16 74 28 36 18 47 30 62 70 18 50 17 61 -3 25z"/>
<path d="M11522 6888 c-25 -30 -19 -37 11 -13 10 7 17 20 15 28 -2 9 -10 5
-26 -15z"/>
<path d="M11605 6866 c-16 -12 -17 -17 -6 -44 10 -23 10 -35 1 -52 -7 -13 -8
-20 -2 -16 6 3 16 22 22 41 6 19 15 35 20 35 4 0 10 7 14 15 8 22 -27 37 -49
21z"/>
<path d="M4252 6805 c0 -16 4 -41 8 -55 8 -24 8 -24 8 5 0 17 -4 41 -8 55 -8
24 -8 24 -8 -5z"/>
<path d="M4543 6823 c-16 -6 -17 -33 -3 -33 11 0 26 28 19 34 -2 2 -10 1 -16
-1z"/>
<path d="M4682 6788 c-18 -18 -14 -28 12 -28 19 0 23 4 19 20 -6 23 -14 25
-31 8z"/>
<path d="M4542 6600 c-13 -33 -28 -60 -33 -60 -5 0 -9 -10 -9 -22 0 -13 -3
-34 -7 -47 -6 -22 -7 -23 -13 -6 -4 11 -7 0 -7 -28 0 -58 10 -46 38 48 12 39
30 87 41 108 10 21 18 45 16 53 -2 8 -13 -12 -26 -46z"/>
<path d="M10808 6653 c7 -3 16 -2 19 1 4 3 -2 6 -13 5 -11 0 -14 -3 -6 -6z"/>
<path d="M10900 6643 c0 -17 16 -31 27 -25 9 6 6 11 -7 20 -11 7 -20 9 -20 5z"/>
<path d="M10815 6579 c11 -7 23 -17 26 -22 4 -5 19 -7 34 -3 38 10 19 26 -36
32 -38 5 -41 4 -24 -7z"/>
<path d="M5685 6510 c33 -33 62 -60 64 -60 3 0 -21 27 -54 60 -33 33 -62 60
-64 60 -3 0 21 -27 54 -60z"/>
<path d="M11040 6550 c-8 -5 -12 -11 -9 -14 2 -3 11 -1 19 4 8 5 12 11 9 14
-2 3 -11 1 -19 -4z"/>
<path d="M10904 6506 c11 -9 31 -17 45 -18 77 -4 114 -5 98 -1 -11 3 -16 11
-13 19 3 9 -1 14 -14 14 -11 0 -20 -7 -20 -15 0 -12 -4 -14 -16 -7 -9 5 -25 7
-34 5 -10 -3 -29 0 -41 7 -23 11 -23 10 -5 -4z"/>
<path d="M5758 6424 c6 -11 18 -28 27 -39 15 -19 15 -18 1 12 -9 17 -21 35
-27 39 -8 4 -8 1 -1 -12z"/>
<path d="M3810 6387 c0 -3 12 -12 26 -22 15 -9 23 -12 20 -6 -7 11 -46 35 -46
28z"/>
<path d="M4461 6364 c0 -11 3 -14 6 -6 3 7 2 16 -1 19 -3 4 -6 -2 -5 -13z"/>
<path d="M4452 6315 c0 -16 2 -22 5 -12 2 9 2 23 0 30 -3 6 -5 -1 -5 -18z"/>
<path d="M3950 6321 c0 -6 4 -13 10 -16 6 -3 7 1 4 9 -7 18 -14 21 -14 7z"/>
<path d="M4719 6229 c-16 -34 -29 -63 -27 -65 2 -2 18 26 36 61 17 36 30 65
27 65 -3 0 -19 -27 -36 -61z"/>
<path d="M4083 6204 c-1 -19 3 -34 8 -34 5 0 9 7 9 15 0 18 21 20 38 3 7 -7
12 -9 12 -6 0 3 -15 17 -33 31 l-33 25 -1 -34z"/>
<path d="M5851 6190 c0 -25 3 -51 8 -59 5 -8 7 5 4 35 -6 68 -11 77 -12 24z"/>
<path d="M3909 6183 c-13 -15 -12 -15 9 -4 23 12 28 21 13 21 -5 0 -15 -7 -22
-17z"/>
<path d="M4176 6156 c3 -8 13 -17 22 -21 13 -5 13 -2 -3 15 -21 24 -26 25 -19
6z"/>
<path d="M3870 6135 c25 -27 40 -35 20 -10 -6 8 -9 19 -5 25 3 6 -3 10 -16 10
l-22 0 23 -25z"/>
<path d="M4030 6146 c0 -2 7 -9 15 -16 9 -7 15 -8 15 -2 0 5 -7 12 -15 16 -8
3 -15 4 -15 2z"/>
<path d="M4656 6095 c-9 -26 -7 -32 5 -12 6 10 9 21 6 23 -2 3 -7 -2 -11 -11z"/>
<path d="M3258 6093 c7 -3 16 -2 19 1 4 3 -2 6 -13 5 -11 0 -14 -3 -6 -6z"/>
<path d="M4070 6090 c0 -5 5 -10 11 -10 5 0 7 5 4 10 -3 6 -8 10 -11 10 -2 0
-4 -4 -4 -10z"/>
<path d="M5880 6085 c0 -5 5 -17 10 -25 5 -8 10 -10 10 -5 0 6 -5 17 -10 25
-5 8 -10 11 -10 5z"/>
<path d="M3338 6073 c7 -3 16 -2 19 1 4 3 -2 6 -13 5 -11 0 -14 -3 -6 -6z"/>
<path d="M3235 6048 c70 -55 141 -128 191 -200 64 -90 88 -112 42 -38 -41 67
-186 220 -229 243 l-34 18 30 -23z"/>
<path d="M3378 6063 c7 -3 16 -2 19 1 4 3 -2 6 -13 5 -11 0 -14 -3 -6 -6z"/>
<path d="M3970 6016 c0 -2 7 -7 16 -10 8 -3 12 -2 9 4 -6 10 -25 14 -25 6z"/>
<path d="M4180 6010 c-8 -5 -11 -12 -8 -15 4 -4 17 0 30 9 24 17 5 23 -22 6z"/>
<path d="M4277 5946 c-4 -9 3 -16 19 -19 24 -4 24 -3 8 14 -20 23 -20 23 -27
5z"/>
<path d="M4536 5945 c-3 -9 -6 -22 -5 -28 0 -7 5 -1 10 12 5 13 8 26 5 28 -2
2 -6 -3 -10 -12z"/>
<path d="M2632 5925 c0 -16 2 -22 5 -12 2 9 2 23 0 30 -3 6 -5 -1 -5 -18z"/>
<path d="M4210 5936 c0 -2 8 -10 18 -17 15 -13 16 -12 3 4 -13 16 -21 21 -21
13z"/>
<path d="M5933 5880 c0 -30 2 -43 4 -27 2 15 2 39 0 55 -2 15 -4 2 -4 -28z"/>
<path d="M6280 5880 c47 -6 103 -16 125 -24 22 -8 56 -17 75 -20 21 -4 6 5
-35 20 -49 18 -96 26 -160 29 l-90 4 85 -9z"/>
<path d="M6105 5862 c-38 -13 -44 -18 -27 -20 28 -4 19 -22 -12 -22 -13 0 -40
-11 -61 -25 -20 -15 -39 -24 -41 -22 -3 2 14 17 36 32 57 39 50 42 -14 6 -38
-21 -56 -27 -59 -18 -3 7 -6 -1 -6 -16 -1 -34 -33 -160 -60 -239 -11 -32 -18
-58 -15 -58 2 0 37 24 77 54 163 121 293 155 502 129 61 -7 162 -17 226 -21
92 -7 123 -13 151 -30 44 -27 52 -28 36 -1 -7 11 -30 29 -50 40 -21 11 -38 22
-38 25 0 2 9 0 20 -6 11 -6 20 -9 20 -7 0 7 -67 56 -80 59 -8 2 -21 10 -30 19
-52 50 -176 80 -211 51 -10 -7 -54 -14 -108 -17 -77 -3 -90 -1 -81 10 8 10 8
14 -1 17 -7 2 7 14 32 25 l44 21 -26 10 c-26 10 -146 1 -168 -13 -6 -3 -11 -2
-11 4 0 5 8 15 18 20 27 16 -5 13 -63 -7z m520 -102 c31 -16 53 -30 49 -30
-16 0 -114 45 -114 53 0 11 3 10 65 -23z m-306 -24 c-10 -9 -89 -46 -89 -41 0
6 72 44 84 45 5 0 7 -2 5 -4z"/>
<path d="M6423 5823 c9 -2 23 -2 30 0 6 3 -1 5 -18 5 -16 0 -22 -2 -12 -5z"/>
<path d="M2611 5774 c0 -11 3 -14 6 -6 3 7 2 16 -1 19 -3 4 -6 -2 -5 -13z"/>
<path d="M2601 5730 c-1 -14 -17 -70 -36 -125 -37 -104 -44 -137 -20 -95 21
39 67 208 62 228 -3 11 -5 9 -6 -8z"/>
<path d="M3565 5705 c16 -13 31 -22 33 -20 7 6 -21 30 -43 38 -14 5 -11 0 10
-18z"/>
<path d="M3541 5671 c48 -88 289 -306 289 -262 0 5 -20 19 -44 30 -50 22 -187
157 -216 212 -10 19 -26 42 -36 50 -14 11 -12 4 7 -30z"/>
<path d="M3580 5656 c0 -2 8 -10 18 -17 15 -13 16 -12 3 4 -13 16 -21 21 -21
13z"/>
<path d="M6880 5575 c14 -8 30 -14 35 -14 6 0 -1 6 -15 14 -14 8 -29 14 -35
14 -5 0 1 -6 15 -14z"/>
<path d="M3677 5559 c7 -7 15 -10 18 -7 3 3 -2 9 -12 12 -14 6 -15 5 -6 -5z"/>
<path d="M3898 5563 c7 -3 16 -2 19 1 4 3 -2 6 -13 5 -11 0 -14 -3 -6 -6z"/>
<path d="M7000 5523 c32 -22 101 -91 123 -123 l18 -25 -12 25 c-16 35 -89 109
-124 126 l-30 14 25 -17z"/>
<path d="M2506 5443 c-6 -14 -5 -15 5 -6 7 7 10 15 7 18 -3 3 -9 -2 -12 -12z"/>
<path d="M3860 5440 c8 -5 20 -10 25 -10 6 0 3 5 -5 10 -8 5 -19 10 -25 10 -5
0 -3 -5 5 -10z"/>
<path d="M2429 5323 c-13 -16 -12 -17 4 -4 9 7 17 15 17 17 0 8 -8 3 -21 -13z"/>
<path d="M2337 5230 c-14 -11 -28 -20 -32 -20 -6 0 -83 -58 -110 -83 -39 -36
94 51 150 98 36 30 29 34 -8 5z"/>
<path d="M5376 5235 c3 -6 15 -11 28 -10 39 0 40 12 3 17 -22 2 -33 0 -31 -7z"/>
<path d="M5251 5214 c0 -11 3 -14 6 -6 3 7 2 16 -1 19 -3 4 -6 -2 -5 -13z"/>
<path d="M5525 5180 c-19 -8 -19 -9 3 -9 12 -1 22 4 22 9 0 6 -1 10 -2 9 -2 0
-12 -4 -23 -9z"/>
<path d="M4080 5153 c14 -10 29 -17 33 -15 5 1 6 -2 3 -7 -3 -5 1 -14 9 -21
22 -18 18 -32 -7 -29 -13 1 -30 -1 -38 -4 -8 -3 -24 -8 -35 -10 -11 -3 35 -5
103 -6 68 0 121 3 118 7 -3 5 -26 9 -53 11 -50 2 -83 22 -83 51 0 23 -20 40
-49 40 l-25 0 24 -17z"/>
<path d="M5816 5151 c-3 -5 -19 -12 -35 -16 -16 -3 -32 -13 -35 -21 -4 -10
-13 -13 -28 -9 -22 6 -22 5 -4 -9 10 -9 23 -13 28 -10 5 3 15 1 22 -5 7 -6 21
-8 30 -5 15 6 15 7 0 19 -20 14 -9 39 12 31 8 -3 17 1 21 10 6 17 -2 30 -11
15z"/>
<path d="M5490 5127 c0 -37 21 -48 44 -24 19 20 19 20 -2 15 -15 -4 -22 -2
-22 7 0 8 -4 17 -10 20 -6 3 -10 -4 -10 -18z"/>
<path d="M4039 5111 c13 -12 28 -21 34 -21 12 0 11 0 -28 24 l-30 17 24 -20z"/>
<path d="M2105 5091 c-33 -16 -55 -30 -48 -30 15 -1 123 46 123 53 0 11 -15 6
-75 -23z"/>
<path d="M5562 5056 c-63 -65 -61 -59 -46 -117 8 -29 14 -87 14 -129 1 -65 2
-73 14 -57 16 20 70 206 62 214 -2 3 -15 -28 -28 -68 -22 -70 -23 -72 -26 -37
-2 22 5 55 17 82 12 25 21 50 21 57 0 8 4 8 15 -1 13 -11 15 -8 13 16 -2 16
-10 36 -19 45 -16 16 -18 15 -37 -5z m-7 -65 c3 -5 1 -13 -5 -16 -15 -9 -43 3
-35 15 8 13 32 13 40 1z"/>
<path d="M3988 5053 c6 -2 18 -2 25 0 6 3 1 5 -13 5 -14 0 -19 -2 -12 -5z"/>
<path d="M3910 5030 c-8 -5 -10 -10 -5 -10 6 0 17 5 25 10 8 5 11 10 5 10 -5
0 -17 -5 -25 -10z"/>
<path d="M5750 5036 c0 -8 61 -12 66 -4 3 4 -11 8 -30 8 -20 0 -36 -2 -36 -4z"/>
<path d="M5932 5016 c-16 -9 -19 -15 -11 -23 8 -8 7 -17 -2 -34 -12 -24 -12
-24 9 -5 13 11 28 16 38 12 20 -8 54 20 54 43 0 20 -55 25 -88 7z"/>
<path d="M6187 5005 c-4 -8 -18 -15 -32 -15 -14 0 -25 -4 -25 -10 0 -20 -19
-10 -23 13 -4 19 -4 18 -6 -5 -1 -35 29 -54 59 -38 20 11 45 58 37 67 -3 2 -7
-3 -10 -12z"/>
<path d="M5733 4994 c23 -17 46 -22 56 -11 8 10 3 13 -24 13 -19 0 -33 -1 -32
-2z"/>
<path d="M5658 4949 c-19 -14 -35 -44 -53 -99 -14 -43 -36 -91 -47 -105 -30
-39 -21 -111 20 -161 18 -21 32 -49 32 -61 0 -13 3 -23 6 -23 3 0 26 17 51 38
25 20 58 43 72 49 l26 13 -25 -6 c-23 -6 -22 -3 14 34 44 46 90 62 109 39 10
-12 22 -11 89 10 75 23 77 24 68 49 -6 14 -10 27 -10 29 0 7 146 73 177 79 30
7 50 22 42 31 -2 2 -22 7 -44 11 -36 6 -39 6 -26 -9 12 -15 9 -19 -20 -31 -30
-13 -36 -13 -51 1 -10 9 -18 23 -18 32 -1 12 -3 11 -12 -4 -6 -11 -24 -35 -41
-52 -37 -39 -33 -42 13 -8 36 27 50 31 50 15 0 -5 -25 -24 -55 -41 -30 -17
-55 -35 -55 -41 0 -10 -89 -52 -96 -45 -2 2 6 17 18 33 l23 29 -25 -18 c-34
-23 -47 -21 -24 4 19 21 19 21 -11 17 -21 -2 -30 -9 -30 -21 0 -18 -149 -167
-167 -167 -6 0 -6 6 2 15 15 18 -1 20 -18 3 -22 -22 -12 0 29 66 42 67 55 76
78 54 11 -11 13 -10 8 3 -3 9 0 22 6 28 15 15 -6 14 -22 -1 -14 -13 -13 -7 6
40 5 11 -9 17 -30 13 -5 -1 -7 4 -5 10 2 7 19 13 36 14 23 1 44 13 72 40 46
45 52 40 13 -13 -22 -30 -23 -34 -5 -18 18 16 24 17 38 6 14 -12 13 -16 -8
-32 l-23 -18 30 6 c18 3 37 0 49 -9 25 -18 59 -3 81 38 9 16 10 23 3 14 -16
-20 -78 -52 -78 -41 0 4 5 13 11 19 9 9 6 11 -12 7 -19 -5 -21 -4 -9 5 13 10
13 11 0 12 -8 1 -21 1 -27 0 -17 -2 -17 -1 7 56 16 37 16 43 4 28 -11 -14 -18
-16 -21 -7 -3 7 -22 -6 -50 -35 -46 -47 -46 -47 -55 -23 -8 22 -7 35 8 95 10
40 -31 -19 -46 -66 -7 -24 -34 -73 -59 -108 -25 -36 -54 -79 -63 -95 -9 -17
-17 -27 -18 -21 0 18 33 100 50 120 31 38 64 91 45 73 -17 -16 -19 -15 -37 7
-21 27 -22 37 -6 53 9 9 16 8 29 -4 16 -14 18 -14 27 3 6 11 5 26 -2 39 -12
22 -12 22 -38 3z m-12 -287 c-9 -17 -21 -34 -27 -38 -7 -4 -2 12 11 34 27 47
40 50 16 4z"/>
<path d="M6296 4893 c-4 -5 -17 -8 -29 -8 -11 0 -22 -6 -24 -12 -7 -20 22 -15
48 7 13 10 21 19 18 20 -3 0 -9 -3 -13 -7z"/>
<path d="M3604 4808 l-19 -23 23 19 c12 11 22 21 22 23 0 8 -8 2 -26 -19z"/>
<path d="M6228 4726 c-4 -19 -1 -22 14 -18 11 2 30 -1 44 -8 27 -15 74 -1 74
22 0 9 -3 9 -12 0 -15 -15 -48 -16 -48 -2 0 6 6 10 14 10 8 0 17 4 20 8 2 4
-4 8 -15 8 -10 0 -19 -4 -19 -9 0 -4 -4 -5 -10 -2 -5 3 -10 1 -10 -4 0 -15
-16 -14 -33 4 -13 12 -15 11 -19 -9z"/>
<path d="M3535 4695 c-3 -11 -11 -30 -16 -42 -13 -33 -2 -28 16 8 9 17 14 36
12 42 -3 7 -8 3 -12 -8z"/>
<path d="M6090 4677 c0 -34 1 -36 20 -25 10 7 16 15 11 18 -4 3 -13 14 -19 25
-10 18 -11 16 -12 -18z"/>
<path d="M5993 4663 c-9 -3 -10 -10 -3 -22 5 -10 6 -21 3 -25 -3 -3 -2 -6 4
-6 6 0 13 14 15 30 5 30 3 32 -19 23z"/>
<path d="M5920 4644 c-36 -11 -48 -21 -62 -50 l-16 -35 27 6 c18 4 32 1 40 -8
9 -12 6 -20 -19 -41 -18 -14 -28 -31 -24 -37 4 -7 0 -9 -14 -5 -13 4 -45 -4
-84 -20 -66 -28 -118 -45 -118 -39 0 2 43 24 95 49 52 24 95 50 95 55 0 6 -21
11 -47 11 -27 0 -43 4 -38 8 6 4 17 16 25 26 14 18 13 18 -10 11 -24 -7 -93
-48 -133 -79 -17 -13 -17 -18 -3 -72 13 -52 14 -73 1 -179 -20 -169 -22 -159
33 -196 29 -19 40 -24 29 -11 -21 23 -8 38 20 24 19 -10 90 -25 82 -18 -2 2
-41 19 -87 36 -45 18 -81 35 -78 37 8 8 141 -21 157 -34 8 -7 26 -13 38 -13
13 0 35 -13 50 -28 26 -28 97 -60 108 -48 5 5 -25 20 -79 39 -10 4 -18 11 -18
16 0 6 19 4 48 -4 59 -18 63 -18 56 0 -4 10 0 15 15 15 12 0 33 11 47 25 14
14 33 25 42 26 9 0 62 1 117 1 l100 0 -106 8 c-58 4 -111 10 -117 14 -6 3 -13
2 -17 -4 -11 -18 -35 -12 -28 8 6 16 5 16 -13 0 -17 -14 -27 -16 -55 -8 -18 6
-35 10 -36 10 -1 0 0 -6 3 -13 3 -8 -1 -19 -9 -26 -11 -9 -17 -8 -28 5 -11 14
-10 18 6 30 18 13 18 14 -6 14 -13 0 -77 27 -142 60 -64 33 -113 60 -108 60 5
0 40 -11 78 -23 106 -37 250 -61 161 -27 -18 6 -42 16 -53 20 -11 4 -47 14
-80 21 l-60 13 77 6 c78 6 116 19 62 21 l-29 1 29 7 c40 8 45 29 6 23 -16 -2
-30 0 -30 6 0 5 19 12 43 15 31 3 49 0 69 -14 15 -10 34 -16 42 -13 13 5 12
11 -7 37 -12 18 -23 34 -24 36 -2 2 -13 -1 -26 -8 -14 -8 -60 -11 -132 -9
l-110 3 89 14 c60 9 93 19 104 31 11 14 20 16 36 9 14 -7 30 -7 46 0 24 9 24
10 -7 10 -18 1 -33 4 -33 9 0 11 102 65 129 68 13 2 26 6 30 10 3 4 -7 4 -22
0 -41 -10 -24 11 25 31 26 10 36 19 29 26 -14 14 -83 -22 -115 -60 -14 -17
-37 -33 -51 -35 -32 -7 -33 10 -1 18 13 3 29 17 35 30 6 14 21 29 33 34 17 7
12 8 -19 3 -47 -6 -57 2 -20 17 17 7 18 9 5 9 -21 1 -23 12 -6 29 19 19 6 21
-42 6z m-3 -39 c0 -8 -7 -15 -15 -15 -12 0 -12 3 -2 15 7 8 13 15 15 15 1 0 2
-7 2 -15z"/>
<path d="M6187 4620 c-11 -29 -11 -29 -32 -10 -21 20 -21 20 -20 -3 0 -12 4
-28 8 -34 11 -18 46 -16 53 2 4 8 14 15 24 15 10 0 24 7 31 17 13 15 12 15 -9
2 -20 -12 -24 -12 -32 1 -5 8 -8 21 -5 28 2 6 2 12 -1 12 -3 0 -11 -13 -17
-30z"/>
<path d="M4810 4604 c0 -6 7 -28 15 -47 16 -38 17 -87 2 -87 -5 0 -6 -7 -3
-15 3 -8 9 -22 12 -30 5 -11 2 -13 -10 -9 -9 3 -16 1 -16 -4 0 -6 -10 -14 -22
-18 -20 -6 -11 -13 57 -45 44 -21 71 -38 60 -38 -16 -1 -8 -12 36 -54 31 -30
64 -66 74 -81 29 -45 27 -23 -4 35 -16 30 -37 79 -47 109 -10 30 -35 81 -57
113 -22 33 -52 87 -68 121 -15 34 -28 56 -29 50z"/>
<path d="M6040 4483 c-14 -15 -19 -23 -11 -18 9 5 12 3 9 -6 -3 -8 -18 -16
-34 -19 -19 -4 -25 -8 -17 -13 12 -7 78 0 96 10 4 2 0 11 -8 19 -11 12 -12 20
-5 35 15 27 -1 23 -30 -8z"/>
<path d="M6361 4493 c-2 -33 -17 -37 -43 -11 -20 20 -23 21 -26 5 -4 -20 -23
-22 -40 -5 -7 7 -12 8 -12 2 0 -21 47 -54 77 -54 38 0 56 20 50 57 -3 21 -4
22 -6 6z"/>
<path d="M3266 4489 c-43 -4 -81 -11 -84 -14 -8 -8 63 -6 143 4 81 10 156 2
163 -18 4 -13 -11 -12 -83 5 -20 5 -20 5 -1 -10 28 -23 13 -30 -23 -12 -16 9
-43 16 -58 15 -24 -1 -22 -3 12 -10 52 -13 121 -59 103 -70 -7 -5 -8 -9 -3 -9
6 0 24 -12 40 -26 29 -24 27 -23 -35 6 -66 31 -119 43 -65 14 62 -32 111 -69
150 -113 27 -30 34 -42 20 -37 -19 7 -19 6 1 -16 34 -37 40 -52 17 -40 -11 6
-25 18 -33 26 -7 9 -17 16 -23 16 -5 0 -2 -10 9 -22 l19 -22 -25 15 c-177 110
-271 157 -155 78 35 -24 50 -39 37 -36 -23 5 -23 5 -6 -14 9 -10 13 -19 9 -19
-4 0 -1 -8 8 -18 10 -10 15 -21 12 -24 -3 -3 4 -13 15 -23 25 -22 26 -36 3
-28 -11 4 -4 -9 17 -32 l35 -39 -45 36 c-80 63 -196 122 -125 63 17 -13 24
-24 16 -25 -11 0 -11 -3 0 -17 12 -15 12 -16 -6 -9 -35 13 -4 -9 38 -27 42
-18 30 -17 -31 2 -19 6 -30 6 -27 0 4 -5 12 -9 20 -9 8 0 17 -4 20 -10 3 -5 0
-7 -8 -4 -8 3 -17 2 -20 -3 -3 -4 115 -9 261 -9 147 -1 290 -6 317 -11 36 -7
-9 -8 -155 -5 -288 7 -546 -18 -810 -78 -138 -31 -325 -91 -380 -121 -41 -23
-38 -23 60 13 109 39 237 77 300 88 30 5 65 12 78 16 14 4 22 2 22 -6 0 -10 3
-10 15 0 13 11 32 15 115 24 14 2 25 4 25 6 0 1 26 3 58 5 l58 3 -16 -25 c-19
-28 -11 -26 42 13 33 25 48 31 38 14 -3 -5 -2 -10 4 -10 5 0 13 5 16 10 11 17
35 12 28 -6 -5 -14 -3 -15 16 -5 29 16 67 5 50 -15 -17 -21 -2 -17 34 8 18 12
-13 -23 -68 -77 -98 -97 -98 -116 0 -26 98 90 102 93 149 98 31 3 46 1 46 -7
0 -7 6 -10 14 -7 21 8 27 -17 10 -42 -11 -15 -12 -21 -3 -21 7 0 1 -13 -14
-28 -15 -16 -24 -31 -21 -35 3 -3 -7 -18 -22 -32 -16 -15 -22 -23 -14 -19 25
13 118 83 125 94 3 5 16 15 28 21 23 11 -60 -73 -128 -130 l-40 -33 40 28 c22
15 63 46 90 69 28 23 63 50 80 61 29 18 29 18 -9 -28 -42 -52 -42 -64 -1 -22
31 31 47 24 19 -8 -18 -20 -18 -21 -1 -15 10 4 27 2 38 -3 13 -8 25 -7 41 1
18 10 20 9 15 -5 -5 -12 2 -11 31 7 20 13 46 27 56 30 16 6 17 5 6 -8 -7 -8
-18 -15 -25 -15 -6 0 -20 -10 -31 -22 -41 -46 -229 -159 -307 -183 -43 -14
-85 -25 -93 -25 -7 0 -14 -4 -14 -10 0 -6 32 -11 73 -11 39 -1 64 -3 55 -6
-10 -2 -18 -9 -18 -14 0 -5 -21 -7 -47 -4 -46 4 -46 4 12 -10 33 -8 85 -14
115 -14 l55 1 -50 13 -50 12 90 1 c50 1 101 1 115 2 60 0 131 25 179 61 44 33
49 35 35 14 -33 -50 -97 -77 -213 -90 -54 -5 -66 -15 -19 -15 109 0 297 71
431 163 53 36 124 98 178 156 53 57 101 99 117 103 15 4 2 4 -29 1 -72 -6
-235 13 -318 39 -96 30 -165 67 -279 152 -113 84 -144 121 -193 231 -19 41
-37 75 -41 75 -20 0 -173 65 -196 84 -31 25 -97 30 -226 15z m325 -376 c13
-16 12 -17 -3 -4 -17 13 -22 21 -14 21 2 0 10 -8 17 -17z m723 -414 c-16 -17
-38 -35 -49 -41 -11 -5 0 8 25 31 54 48 65 53 24 10z m-314 -42 c0 -2 -12 -14
-27 -28 l-28 -24 24 28 c23 25 31 32 31 24z m210 -25 c0 -12 -80 -55 -87 -48
-4 3 -4 7 -2 9 13 8 84 46 87 47 1 0 2 -4 2 -8z m-415 -48 c-24 -19 -95 -56
-95 -50 0 5 102 66 110 65 3 0 -4 -7 -15 -15z m19 -30 c4 -10 2 -14 -6 -11 -7
2 -21 0 -31 -5 -31 -16 -31 -1 0 16 15 8 29 15 29 16 1 0 5 -7 8 -16z m266 1
c-7 -8 -17 -15 -22 -15 -6 0 -5 7 2 15 7 8 17 15 22 15 6 0 5 -7 -2 -15z"/>
<path d="M3120 4460 c-20 -6 -21 -8 -5 -8 11 0 29 3 40 8 25 11 -1 11 -35 0z"/>
<path d="M3228 4443 c6 -2 18 -2 25 0 6 3 1 5 -13 5 -14 0 -19 -2 -12 -5z"/>
<path d="M3278 4433 c7 -3 16 -2 19 1 4 3 -2 6 -13 5 -11 0 -14 -3 -6 -6z"/>
<path d="M2985 4415 c-25 -12 -26 -14 -5 -9 28 7 60 23 45 23 -5 0 -23 -6 -40
-14z"/>
<path d="M6187 4366 c-9 -23 22 -56 52 -56 28 0 60 25 47 37 -3 3 -6 2 -6 -4
0 -18 -49 -2 -55 18 -7 22 -30 25 -38 5z"/>
<path d="M6090 4355 c0 -14 -43 -32 -66 -27 -7 1 -14 -7 -17 -18 -5 -21 7 -28
18 -10 4 6 22 17 41 25 19 8 34 21 34 29 0 9 -2 16 -5 16 -3 0 -5 -7 -5 -15z"/>
<path d="M6745 4259 c-126 -58 -141 -69 -99 -69 16 0 51 -7 78 -15 27 -8 51
-13 54 -11 2 3 -21 12 -52 21 -31 9 -56 19 -56 21 0 3 43 25 95 50 52 24 95
46 95 49 0 7 7 10 -115 -46z"/>
<path d="M5880 4296 c0 -2 9 -6 20 -9 11 -3 18 -1 14 4 -5 9 -34 13 -34 5z"/>
<path d="M5970 4280 c-8 -5 -33 -10 -55 -10 -50 0 -77 -15 -44 -23 12 -3 30
-2 40 4 10 5 46 11 79 13 61 4 97 16 47 16 -14 0 -31 2 -39 5 -7 3 -20 0 -28
-5z"/>
<path d="M6135 4278 c-9 -22 12 -58 33 -58 10 0 27 7 38 15 16 13 16 14 2 9
-26 -9 -22 5 5 16 18 8 15 9 -15 5 -28 -4 -39 -1 -47 13 -9 16 -10 16 -16 0z
m52 -33 c0 -17 -13 -20 -21 -6 -4 5 0 12 6 14 7 3 13 6 14 6 0 1 1 -6 1 -14z"/>
<path d="M5850 4190 c8 -5 22 -9 30 -9 10 0 8 3 -5 9 -27 12 -43 12 -25 0z"/>
<path d="M6800 4150 c8 -5 20 -10 25 -10 6 0 3 5 -5 10 -8 5 -19 10 -25 10 -5
0 -3 -5 5 -10z"/>
<path d="M5022 4111 c-69 -58 -195 -124 -318 -167 -71 -24 -122 -44 -113 -44
9 0 36 7 59 15 24 8 45 13 47 11 3 -2 -45 -71 -106 -153 -61 -81 -184 -247
-273 -368 -235 -321 -287 -375 -381 -395 l-32 -6 34 -18 c32 -17 34 -17 50 -1
15 16 15 17 -6 6 -15 -7 -23 -8 -23 -2 0 6 14 18 31 26 68 36 146 123 341 386
82 109 213 261 156 179 -14 -19 -58 -82 -98 -140 -222 -318 -381 -505 -475
-558 -17 -10 -16 -11 10 -6 61 11 68 9 88 -24 25 -43 27 -140 4 -208 -19 -54
-78 -120 -134 -148 -51 -25 -125 -38 -156 -27 l-26 10 15 45 c14 41 14 47 0
68 -9 12 -16 30 -16 40 0 13 -8 18 -29 18 -16 0 -40 4 -53 9 -20 7 -25 5 -35
-15 -6 -13 -7 -24 -2 -24 5 0 9 5 9 11 0 6 9 8 23 3 12 -4 30 -7 40 -6 18 1
23 -13 8 -22 -10 -6 9 -56 21 -56 3 0 9 8 12 18 2 9 4 4 3 -11 -2 -24 -9 -32
-42 -44 -72 -26 -73 -26 -80 -3 -5 17 -9 19 -15 9 -5 -7 -6 -17 -4 -21 3 -5
-3 -12 -13 -16 -10 -4 -19 -11 -20 -17 -1 -5 -5 -19 -9 -30 -5 -14 -1 -12 16
8 20 25 27 28 79 25 l56 -3 5 -45 5 -45 13 43 c19 62 25 46 12 -31 -7 -37 -10
-72 -7 -79 3 -7 6 -4 6 8 2 40 22 82 39 80 9 0 20 -5 24 -10 4 -6 13 -5 22 3
12 10 15 8 19 -16 l4 -28 2 29 c1 20 5 27 15 23 8 -3 17 -1 20 6 3 9 5 8 5 -1
1 -7 5 -11 10 -7 19 11 23 -63 7 -111 -21 -63 -14 -68 9 -7 10 27 19 72 20
101 1 29 5 56 10 60 11 10 -2 -139 -15 -174 -6 -16 -23 -41 -38 -55 -15 -14
-32 -34 -39 -45 -10 -16 -10 -13 -2 13 11 32 8 101 -3 73 -14 -38 -33 -106
-30 -113 1 -4 -11 -33 -28 -65 -16 -31 -36 -75 -45 -97 -18 -46 -12 -13 9 58
9 26 11 47 6 47 -6 0 -10 -6 -10 -12 0 -10 -2 -10 -9 0 -6 11 -10 10 -16 -5
-7 -14 -10 -10 -16 22 -4 24 -7 -18 -5 -102 1 -79 0 -143 -1 -143 -2 0 -18 31
-38 69 -26 53 -33 77 -29 100 4 21 3 31 -5 31 -7 0 -9 -5 -5 -12 5 -8 0 -7
-11 2 -17 14 -17 13 -10 -10 12 -40 89 -183 99 -184 5 -1 21 37 36 84 34 110
58 154 120 226 32 37 73 105 112 184 33 69 79 163 103 210 53 106 55 115 59
291 2 88 8 153 15 167 11 20 278 386 330 452 11 14 22 22 25 19 3 -3 -10 -70
-30 -150 -45 -183 -71 -362 -83 -565 -6 -88 -15 -173 -21 -188 -5 -15 -10 -33
-9 -39 0 -7 8 11 18 38 12 34 20 97 25 195 15 322 91 669 187 855 64 125 88
152 48 54 -131 -316 -184 -556 -196 -880 -9 -270 22 -501 98 -732 44 -129 131
-312 175 -362 30 -35 22 -15 -12 32 -29 39 -30 47 -4 40 11 -3 18 -1 14 4 -8
13 1 11 41 -8 19 -9 35 -23 35 -30 0 -10 10 -12 40 -7 31 5 48 1 83 -19 44
-26 77 -57 60 -57 -5 0 -13 3 -19 8 -5 4 5 -6 22 -23 18 -16 42 -49 54 -73 13
-24 25 -41 27 -38 8 8 -47 109 -75 139 -38 40 -99 74 -156 87 -27 6 -62 20
-77 31 -16 11 -33 18 -37 15 -5 -3 -18 2 -28 10 -15 12 -15 14 -3 11 11 -4 4
14 -21 51 -21 31 -50 86 -65 122 -37 92 -83 278 -95 385 -6 49 -12 105 -15
124 -5 43 7 30 29 -31 9 -25 24 -49 31 -52 10 -4 6 13 -14 52 -16 31 -34 81
-40 110 -14 69 -15 155 0 147 10 -7 6 38 -8 88 -2 9 0 17 5 17 5 0 13 -17 17
-37 13 -69 65 -221 80 -233 13 -11 14 -10 9 6 -4 14 -1 13 15 -6 11 -14 21
-29 21 -34 0 -5 3 -7 6 -3 4 3 -3 21 -14 39 -12 18 -35 83 -52 143 -41 143
-51 330 -26 473 41 237 170 523 321 712 51 65 114 125 121 117 2 -2 -23 -55
-56 -118 -62 -120 -130 -286 -130 -316 0 -10 16 20 34 66 19 46 40 88 46 95 7
6 5 -3 -3 -20 -9 -17 -18 -42 -21 -55 -3 -13 -19 -64 -36 -113 -17 -49 -29
-90 -27 -92 2 -2 14 14 26 36 44 78 34 34 -13 -59 -47 -92 -87 -228 -80 -271
7 -44 26 -52 46 -21 14 23 38 16 38 -11 0 -10 5 -16 10 -13 14 9 13 2 -11 -77
-21 -72 -20 -108 1 -43 16 48 20 41 10 -20 -7 -48 -7 -49 11 -27 16 20 18 21
22 5 3 -13 7 -8 12 15 8 34 25 44 25 15 0 -15 2 -16 10 -3 15 24 20 7 10 -35
-14 -60 -12 -111 5 -125 19 -16 18 -16 38 40 l16 45 -5 -60 c-4 -45 -2 -56 6
-43 15 24 40 11 41 -21 0 -25 0 -25 9 -3 16 39 40 27 40 -20 1 -27 8 -51 19
-65 21 -25 40 -30 42 -10 1 6 7 -13 14 -43 l13 -55 1 50 1 50 20 -25 c11 -14
25 -40 32 -57 7 -18 18 -33 24 -33 7 0 16 -15 20 -32 6 -28 8 -30 14 -13 6 18
8 18 20 -5 7 -14 16 -27 20 -30 4 -3 15 -18 24 -35 15 -26 16 -27 10 -5 -5 19
15 5 82 -60 49 -47 93 -93 98 -102 5 -10 13 -18 17 -18 5 0 16 -15 24 -32 10
-22 13 -25 8 -8 -5 21 3 17 53 -29 32 -29 64 -62 70 -73 5 -10 13 -16 16 -13
7 7 68 -62 68 -78 0 -8 3 -7 9 2 8 12 15 8 38 -19 15 -18 31 -40 35 -49 4 -10
7 -11 7 -3 1 7 5 11 11 7 5 -3 6 -13 3 -21 -4 -11 0 -15 13 -12 12 2 18 -2 16
-10 -1 -8 2 -11 7 -8 12 8 63 -39 53 -48 -4 -4 -2 -6 3 -5 18 6 56 -21 49 -34
-4 -7 -4 -9 1 -5 4 4 25 -7 46 -25 21 -17 54 -45 74 -60 19 -16 32 -34 28 -40
-3 -6 -1 -7 5 -3 10 6 138 -74 152 -94 8 -11 71 -42 76 -37 3 2 -26 24 -63 48
-115 75 -270 198 -468 373 -191 169 -492 455 -572 545 -250 280 -396 621 -391
911 l1 85 7 -100 c9 -127 23 -194 66 -327 75 -227 207 -428 429 -653 121 -123
327 -317 445 -419 59 -51 -66 70 -220 214 -205 191 -424 426 -380 408 48 -19
50 -17 9 10 -47 31 -67 58 -47 64 5 2 2 10 -8 18 -16 13 -17 13 -10 0 4 -8 -7
1 -25 19 -19 21 -27 37 -21 39 8 2 5 14 -10 35 -15 22 -18 32 -10 35 10 3 10
7 1 18 -8 9 -8 14 -1 14 6 0 13 -4 16 -9 3 -5 16 -11 28 -14 18 -5 16 0 -12
21 -19 15 -48 40 -65 55 l-30 29 35 -25 c46 -32 130 -80 130 -74 0 2 -18 16
-40 31 -41 27 -130 110 -130 121 0 3 9 1 19 -5 29 -15 37 7 12 34 l-21 22 23
-1 c12 0 28 -4 35 -8 7 -5 12 -4 12 2 0 15 54 -10 113 -53 103 -73 199 -127
270 -151 47 -17 67 -42 25 -31 -20 5 -20 5 2 -6 60 -29 150 -66 150 -63 0 2
-30 22 -67 46 -37 23 -90 63 -118 89 -27 26 -95 81 -151 122 -145 109 -251
227 -310 344 -45 89 -48 100 -52 187 -4 91 12 195 38 262 11 28 13 29 21 10 6
-13 8 4 5 50 -5 72 5 209 16 220 3 4 39 -27 80 -68 76 -77 176 -155 241 -188
20 -11 37 -18 37 -16 0 2 -37 28 -82 58 -46 29 -124 94 -174 144 l-91 91 -31
-25z m99 -908 c13 -16 12 -17 -3 -4 -17 13 -22 21 -14 21 2 0 10 -8 17 -17z
m135 -124 c11 -19 -13 -8 -46 21 l-35 30 38 -21 c20 -11 40 -25 43 -30z m-790
-76 c-11 -29 -17 -6 -9 33 7 36 8 37 11 11 2 -16 1 -36 -2 -44z m882 5 c22
-18 59 -46 82 -62 23 -15 39 -31 36 -33 -5 -5 -69 41 -141 102 -44 37 -24 31
23 -7z m-1271 -140 c-2 -18 -4 -6 -4 27 0 33 2 48 4 33 2 -15 2 -42 0 -60z
m-57 32 c6 -11 7 -20 3 -20 -5 0 -16 9 -26 20 -14 16 -14 20 -2 20 8 0 19 -9
25 -20z m10 -351 c-7 -11 -14 -18 -17 -15 -3 3 0 12 7 21 18 21 23 19 10 -6z
m-59 -102 c-13 -13 -15 1 -4 30 7 17 8 17 11 -1 2 -10 -1 -23 -7 -29z m-20
-54 c-12 -20 -14 -14 -5 12 4 9 9 14 11 11 3 -2 0 -13 -6 -23z m-268 -478 c-3
-9 -8 -14 -10 -11 -3 3 -2 9 2 15 9 16 15 13 8 -4z"/>
<path d="M9153 4078 c7 -4 285 -8 619 -8 333 0 613 -3 622 -6 9 -3 14 -9 12
-13 -3 -3 -7 -540 -10 -1192 l-6 -1185 -24 -75 c-13 -40 -23 -75 -21 -77 6 -6
38 87 57 168 20 82 21 120 25 1243 l5 1157 -645 -2 c-355 -2 -640 -6 -634 -10z"/>
<path d="M7020 4007 c30 -32 56 -57 57 -57 12 0 -34 52 -70 80 -39 31 -38 29
13 -23z"/>
<path d="M3220 4020 c-13 -9 -13 -10 0 -11 8 0 -1 -7 -20 -14 -34 -13 -33 -13
30 -8 36 3 67 7 68 9 4 2 -53 34 -60 34 -2 0 -10 -5 -18 -10z"/>
<path d="M5582 3968 c-25 -72 -28 -95 -7 -58 8 14 15 21 15 15 0 -5 4 -4 9 4
6 9 16 11 27 6 11 -4 35 -9 54 -11 47 -5 289 -169 400 -271 65 -60 75 -67 42
-29 -49 57 -45 76 15 58 20 -6 38 -10 39 -9 2 2 -40 22 -92 45 -121 54 -271
147 -384 240 -49 39 -90 72 -92 72 -3 0 -14 -28 -26 -62z"/>
<path d="M3070 3984 c10 -12 8 -14 -16 -14 -16 0 -36 -4 -43 -9 -16 -10 60 -3
92 8 14 5 11 9 -14 18 -26 10 -29 10 -19 -3z"/>
<path d="M3128 3988 c5 -5 16 -8 23 -6 8 3 3 7 -10 11 -17 4 -21 3 -13 -5z"/>
<path d="M7095 3911 c8 -17 19 -33 25 -36 5 -3 1 10 -11 29 -25 43 -36 48 -14
7z"/>
<path d="M2391 3877 c-13 -21 -12 -21 5 -5 10 10 16 20 13 22 -3 3 -11 -5 -18
-17z"/>
<path d="M3435 3808 c-48 -49 -48 -50 -10 -21 47 37 82 73 69 73 -6 0 -32 -23
-59 -52z"/>
<path d="M5440 3820 c8 -5 20 -10 25 -10 6 0 3 5 -5 10 -8 5 -19 10 -25 10 -5
0 -3 -5 5 -10z"/>
<path d="M2334 3798 l-19 -23 23 19 c21 18 27 26 19 26 -2 0 -12 -10 -23 -22z"/>
<path d="M5032 3795 c0 -16 4 -41 8 -55 l8 -25 0 25 c0 14 -4 39 -8 55 l-8 30
0 -30z"/>
<path d="M2280 3727 l-33 -42 39 37 c21 21 36 40 33 43 -3 3 -21 -14 -39 -38z"/>
<path d="M3333 3729 c-24 -17 -43 -32 -43 -35 0 -3 20 9 45 26 25 17 45 33 45
35 0 7 -2 6 -47 -26z"/>
<path d="M2417 3668 c-72 -18 -208 -80 -227 -103 -5 -7 32 9 82 34 97 48 151
64 278 79 l75 10 -69 -2 c-38 0 -101 -9 -139 -18z"/>
<path d="M2224 3658 l-19 -23 23 19 c21 18 27 26 19 26 -2 0 -12 -10 -23 -22z"/>
<path d="M2693 3673 c15 -2 39 -2 55 0 15 2 2 4 -28 4 -30 0 -43 -2 -27 -4z"/>
<path d="M3565 3655 c-22 -14 -36 -25 -31 -25 10 0 76 40 76 46 0 6 -2 5 -45
-21z"/>
<path d="M2793 3663 c9 -2 23 -2 30 0 6 3 -1 5 -18 5 -16 0 -22 -2 -12 -5z"/>
<path d="M2865 3650 c17 -4 41 -8 55 -8 l25 0 -25 8 c-14 4 -38 8 -55 8 l-30
0 30 -8z"/>
<path d="M2958 3633 c6 -2 18 -2 25 0 6 3 1 5 -13 5 -14 0 -19 -2 -12 -5z"/>
<path d="M2184 3608 l-19 -23 23 19 c21 18 27 26 19 26 -2 0 -12 -10 -23 -22z"/>
<path d="M3011 3626 c11 -9 69 -14 69 -6 0 6 -16 10 -37 10 -20 0 -34 -2 -32
-4z"/>
<path d="M5081 3600 c0 -8 4 -22 9 -30 12 -18 12 -2 0 25 -6 13 -9 15 -9 5z"/>
<path d="M3175 3585 c42 -17 257 -75 275 -75 6 0 8 5 5 10 -3 6 -17 10 -31 10
-14 0 -46 6 -72 14 -90 27 -157 45 -187 51 -24 4 -22 2 10 -10z"/>
<path d="M3390 3591 c-18 -5 -21 -8 -10 -12 8 -3 26 0 40 8 26 13 12 16 -30 4z"/>
<path d="M3357 3569 c7 -7 15 -10 18 -7 3 3 -2 9 -12 12 -14 6 -15 5 -6 -5z"/>
<path d="M3398 3553 c7 -3 16 -2 19 1 4 3 -2 6 -13 5 -11 0 -14 -3 -6 -6z"/>
<path d="M6170 3556 c0 -2 8 -10 18 -17 15 -13 16 -12 3 4 -13 16 -21 21 -21
13z"/>
<path d="M4746 3524 c-4 -14 -5 -28 -3 -31 3 -2 8 8 11 23 4 14 5 28 3 31 -3
2 -8 -8 -11 -23z"/>
<path d="M7181 3444 c-28 -74 -21 -80 8 -8 13 30 21 57 18 60 -3 3 -15 -20
-26 -52z"/>
<path d="M5154 3435 c8 -16 22 -39 31 -50 15 -19 15 -18 1 10 -8 17 -22 39
-31 50 -15 19 -15 18 -1 -10z"/>
<path d="M4718 3425 c-4 -16 -16 -56 -28 -89 -11 -32 -19 -63 -17 -70 2 -6 9
7 16 29 7 22 19 56 28 76 8 20 13 47 11 60 -3 22 -4 22 -10 -6z"/>
<path d="M6271 3398 c25 -51 34 -61 25 -30 -9 26 -4 27 32 5 37 -23 26 -12
-31 31 l-48 36 22 -42z"/>
<path d="M6360 3355 c0 -2 18 -14 40 -25 22 -11 40 -18 40 -15 0 2 -18 14 -40
25 -22 11 -40 18 -40 15z"/>
<path d="M6301 3335 c1 -19 18 -51 18 -35 0 8 -4 22 -9 30 -5 8 -9 11 -9 5z"/>
<path d="M5285 3255 c26 -30 52 -55 58 -55 6 0 -13 25 -43 55 -30 30 -56 55
-58 55 -2 0 18 -25 43 -55z"/>
<path d="M7101 3290 c-13 -11 -19 -20 -13 -20 10 0 42 27 42 36 0 7 -4 5 -29
-16z"/>
<path d="M6321 3264 c0 -11 3 -14 6 -6 3 7 2 16 -1 19 -3 4 -6 -2 -5 -13z"/>
<path d="M6988 3273 c6 -2 18 -2 25 0 6 3 1 5 -13 5 -14 0 -19 -2 -12 -5z"/>
<path d="M6845 3239 c-46 -15 -51 -18 -20 -13 22 3 53 12 70 19 42 19 21 16
-50 -6z"/>
<path d="M6610 3240 c8 -5 22 -9 30 -9 10 0 8 3 -5 9 -27 12 -43 12 -25 0z"/>
<path d="M4651 3194 c0 -11 3 -14 6 -6 3 7 2 16 -1 19 -3 4 -6 -2 -5 -13z"/>
<path d="M4642 3145 c0 -16 2 -22 5 -12 2 9 2 23 0 30 -3 6 -5 -1 -5 -18z"/>
<path d="M6316 3133 c-11 -62 -54 -140 -89 -162 -18 -11 -27 -21 -22 -21 21 0
55 32 79 73 25 43 53 134 43 143 -2 3 -8 -12 -11 -33z"/>
<path d="M5450 3126 c0 -3 9 -10 20 -16 11 -6 20 -8 20 -6 0 3 -9 10 -20 16
-11 6 -20 8 -20 6z"/>
<path d="M5545 3060 c10 -11 20 -20 22 -20 2 0 -1 9 -7 20 -6 11 -16 20 -22
20 -6 0 -3 -9 7 -20z"/>
<path d="M3810 2999 l-65 -6 53 -1 c49 -2 97 -18 130 -45 10 -8 10 -12 0 -18
-7 -4 -9 -11 -5 -15 4 -4 14 1 21 12 13 17 12 20 -12 33 -15 7 -34 21 -42 30
-12 13 -27 15 -80 10z"/>
<path d="M3688 2974 c-16 -8 -28 -17 -28 -20 0 -2 12 2 28 9 15 8 34 17 42 20
13 5 13 5 0 6 -8 0 -27 -7 -42 -15z"/>
<path d="M5644 2948 c22 -18 54 -47 73 -64 18 -18 33 -29 33 -25 0 10 -45 50
-100 90 l-45 33 39 -34z"/>
<path d="M3620 2930 c-14 -11 -20 -20 -14 -20 6 0 19 9 29 20 23 25 17 25 -15
0z"/>
<path d="M6078 2918 c-13 -13 -17 -18 -8 -11 8 7 27 16 40 22 17 6 19 10 8 10
-9 1 -27 -9 -40 -21z"/>
<path d="M4647 2893 c8 -50 13 -55 13 -10 0 20 -4 38 -9 42 -6 3 -7 -10 -4
-32z"/>
<path d="M3561 2865 c-13 -20 -21 -38 -17 -42 3 -3 6 -1 6 5 0 6 12 24 26 41
14 17 22 31 17 31 -4 0 -19 -16 -32 -35z"/>
<path d="M5982 2844 c-24 -19 -39 -34 -34 -34 5 0 26 16 48 35 50 44 42 44
-14 -1z"/>
<path d="M5724 2727 c52 -39 105 -89 103 -96 -1 -4 16 -23 38 -42 30 -25 24
-15 -24 39 -64 73 -120 123 -137 121 -5 0 4 -10 20 -22z"/>
<path d="M3518 2648 c-2 -21 -3 -38 -1 -38 10 0 19 39 13 55 -6 16 -8 12 -12
-17z"/>
<path d="M4356 2515 c-11 -38 -54 -173 -97 -298 -43 -129 -75 -236 -72 -248 7
-24 -15 -69 -33 -69 -8 0 -20 -13 -29 -30 -20 -38 -19 -50 3 -25 59 70 98 71
151 4 35 -44 41 -59 41 -98 0 -71 -18 -119 -62 -167 -39 -42 -72 -56 -80 -33
-2 7 -12 7 -32 -1 -35 -13 -61 6 -71 50 l-6 27 -31 -29 c-26 -24 -39 -29 -68
-26 -30 3 -36 0 -36 -17 0 -11 6 -26 13 -33 9 -9 13 -10 13 -2 0 6 4 8 10 5 5
-3 26 10 45 29 l35 35 40 -43 c22 -24 40 -46 40 -49 0 -3 -14 -14 -31 -25 -24
-15 -39 -18 -65 -12 -39 9 -43 1 -13 -26 15 -14 20 -15 17 -4 -2 10 4 14 16
13 11 -1 31 7 44 18 14 10 36 19 49 19 32 0 136 98 163 154 35 74 23 187 -33
307 -44 91 -37 151 45 379 19 52 38 95 43 95 10 0 16 -28 40 -184 8 -52 18
-97 23 -100 5 -3 16 -33 25 -66 9 -33 39 -121 68 -195 44 -117 52 -148 59
-235 4 -62 8 -80 9 -48 0 28 5 54 9 57 4 3 6 21 4 40 -2 21 -8 33 -14 30 -6
-4 -8 1 -4 14 4 13 -7 54 -33 114 -100 235 -151 431 -168 648 l-8 95 -19 -70z
m-101 -561 c1 -5 9 -23 18 -41 20 -37 21 -43 7 -43 -10 0 -33 39 -45 79 -5 17
-4 22 6 19 8 -3 14 -9 14 -14z m-65 -444 c-24 -15 -36 -11 -14 4 10 8 21 12
24 10 2 -3 -2 -9 -10 -14z"/>
<path d="M4760 2545 c0 -5 5 -17 10 -25 5 -8 10 -10 10 -5 0 6 -5 17 -10 25
-5 8 -10 11 -10 5z"/>
<path d="M5900 2545 c1 -5 14 -26 31 -45 17 -19 26 -26 20 -15 -15 30 -51 71
-51 60z"/>
<path d="M3480 2526 c0 -8 4 -17 9 -20 5 -4 7 3 4 14 -6 23 -13 26 -13 6z"/>
<path d="M4810 2450 c6 -11 13 -20 16 -20 2 0 0 9 -6 20 -6 11 -13 20 -16 20
-2 0 0 -9 6 -20z"/>
<path d="M4520 2457 c0 -4 9 -25 20 -47 11 -21 15 -40 10 -42 -6 -2 -1 -9 10
-16 30 -19 26 8 -10 65 -16 26 -30 44 -30 40z"/>
<path d="M4271 2367 c-13 -39 -41 -119 -62 -176 -22 -57 -37 -106 -35 -108 2
-2 24 51 49 119 58 160 80 228 75 233 -2 3 -15 -28 -27 -68z"/>
<path d="M6009 2370 c37 -61 81 -149 81 -163 0 -8 23 -60 50 -115 28 -56 50
-105 50 -110 0 -5 11 -35 25 -66 31 -69 31 -74 3 -50 -13 10 -7 1 12 -22 29
-34 84 -123 99 -159 2 -5 -7 -1 -19 10 l-24 20 24 -35 c32 -47 34 -49 25 -20
-6 21 -2 19 28 -15 20 -22 36 -44 37 -48 0 -9 -3 -7 -64 31 -21 13 -35 19 -32
14 8 -14 106 -74 106 -65 0 3 8 -1 18 -9 44 -38 42 -26 -3 23 -96 102 -138
174 -208 354 -20 50 -49 116 -66 148 -16 32 -35 75 -42 95 -18 55 -74 164 -99
192 l-22 25 21 -35z"/>
<path d="M4871 2375 c0 -5 6 -19 14 -29 8 -11 15 -15 15 -10 0 6 -7 19 -15 30
-8 10 -14 15 -14 9z"/>
<path d="M4630 2351 c0 -4 11 -25 25 -45 14 -20 25 -41 25 -46 0 -6 5 -10 11
-10 5 0 8 4 5 9 -4 5 0 11 6 14 15 5 93 -46 107 -71 6 -9 11 -12 11 -6 0 11
-24 34 -88 86 -11 9 -23 14 -25 11 -10 -9 -56 28 -51 41 3 8 -2 16 -10 19 -9
4 -16 3 -16 -2z"/>
<path d="M4496 2313 c-2 -16 -1 -48 2 -73 l8 -45 7 34 c5 22 3 37 -4 42 -7 4
-9 18 -4 38 4 17 4 31 2 31 -3 0 -8 -12 -11 -27z"/>
<path d="M4929 2287 c19 -21 36 -37 38 -37 9 0 -23 38 -45 54 -21 15 -20 12 7
-17z"/>
<path d="M5055 2151 c90 -93 144 -138 259 -219 87 -61 106 -70 66 -31 -19 19
-40 33 -46 31 -6 -1 -39 22 -73 53 -34 30 -67 55 -73 55 -6 0 -39 28 -72 63
-34 34 -81 80 -106 102 -25 21 -4 -3 45 -54z"/>
<path d="M3672 2200 c0 -14 2 -19 5 -12 2 6 2 18 0 25 -3 6 -5 1 -5 -13z"/>
<path d="M4780 2191 c0 -14 13 -27 43 -41 l42 -21 -25 23 c-14 13 -33 31 -42
42 -18 18 -18 18 -18 -3z"/>
<path d="M3520 2163 c0 -4 5 -15 10 -23 8 -13 10 -13 10 2 0 9 -4 20 -10 23
-5 3 -10 3 -10 -2z"/>
<path d="M4540 2121 c0 -3 12 -17 25 -30 l25 -23 0 28 c0 24 -5 29 -25 30 -14
1 -25 -1 -25 -5z"/>
<path d="M3541 2094 c0 -11 3 -14 6 -6 3 7 2 16 -1 19 -3 4 -6 -2 -5 -13z"/>
<path d="M4855 2090 c-3 -5 1 -10 9 -10 9 0 16 5 16 10 0 6 -4 10 -9 10 -6 0
-13 -4 -16 -10z"/>
<path d="M4136 2041 c-15 -16 -42 -33 -59 -40 -18 -6 -22 -9 -9 -7 25 5 26 2
12 -25 -6 -10 -20 -19 -32 -19 -29 0 -20 -6 20 -13 29 -6 33 -4 28 11 -4 11 2
27 14 40 11 11 20 24 20 28 0 4 10 18 22 31 12 13 19 23 17 23 -3 0 -18 -13
-33 -29z"/>
<path d="M4639 2003 c19 -18 41 -33 50 -33 9 0 3 7 -14 16 -16 8 -39 23 -51
32 -11 9 -5 2 15 -15z"/>
<path d="M4872 2022 c7 -8 15 -32 19 -55 6 -42 7 -42 8 13 1 49 -1 56 -18 56
-16 0 -17 -3 -9 -14z"/>
<path d="M4714 1985 c1 -8 8 -21 16 -28 9 -8 11 -8 6 0 -3 6 -2 14 4 18 13 8
3 25 -15 25 -7 0 -12 -7 -11 -15z"/>
<path d="M5890 1965 c19 -19 36 -35 39 -35 3 0 -10 16 -29 35 -19 19 -36 35
-39 35 -3 0 10 -16 29 -35z"/>
<path d="M3931 1895 c-22 -24 -41 -48 -41 -52 0 -5 10 5 22 21 12 15 34 36 51
46 16 10 24 20 19 24 -5 3 -28 -14 -51 -39z"/>
<path d="M4750 1936 c0 -2 8 -10 18 -17 15 -13 16 -12 3 4 -13 16 -21 21 -21
13z"/>
<path d="M4866 1921 c-4 -7 -5 -15 -2 -18 9 -9 19 4 14 18 -4 11 -6 11 -12 0z"/>
<path d="M5950 1917 c0 -2 15 -16 33 -33 l32 -29 -29 33 c-28 30 -36 37 -36
29z"/>
<path d="M4831 1896 c2 -2 15 -9 29 -15 24 -11 24 -11 6 3 -16 13 -49 24 -35
12z"/>
<path d="M5420 1866 c0 -12 179 -110 188 -102 3 3 1 6 -5 6 -6 0 -45 23 -87
50 -68 44 -96 58 -96 46z"/>
<path d="M6020 1856 c0 -2 8 -10 18 -17 15 -13 16 -12 3 4 -13 16 -21 21 -21
13z"/>
<path d="M6095 1790 c10 -11 20 -20 23 -20 3 0 -3 9 -13 20 -10 11 -20 20 -23
20 -3 0 3 -9 13 -20z"/>
<path d="M5780 1796 c0 -2 8 -10 18 -17 15 -13 16 -12 3 4 -13 16 -21 21 -21
13z"/>
<path d="M6230 1796 c0 -2 7 -9 15 -16 13 -11 14 -10 9 4 -5 14 -24 23 -24 12z"/>
<path d="M6145 1750 c10 -11 20 -20 23 -20 3 0 -3 9 -13 20 -10 11 -20 20 -23
20 -3 0 3 -9 13 -20z"/>
<path d="M5654 1736 c64 -40 213 -84 392 -115 93 -17 207 -44 254 -60 130 -44
127 -44 100 -28 -43 25 -171 65 -272 86 -54 10 -112 26 -129 35 -40 20 -48 20
-23 0 19 -15 19 -15 -1 -10 -11 2 -35 8 -54 11 -19 4 -50 14 -70 23 -20 9 -41
15 -48 14 -18 -4 -120 37 -133 53 -7 8 -22 15 -34 15 -17 -1 -13 -5 18 -24z"/>
<path d="M6180 1726 c0 -2 14 -14 30 -26 17 -12 30 -19 30 -16 0 2 -13 14 -30
26 -16 12 -30 19 -30 16z"/>
<path d="M5851 1706 c2 -2 15 -9 29 -15 24 -11 24 -11 6 3 -16 13 -49 24 -35
12z"/>
<path d="M3890 1631 c0 -7 -4 -9 -10 -6 -12 7 -12 -2 -1 -30 7 -17 9 -16 15 9
4 16 5 31 1 34 -3 3 -5 0 -5 -7z"/>
<path d="M4957 1540 c-4 -16 -18 -36 -31 -45 -21 -14 -31 -15 -63 -5 -21 7
-51 24 -67 39 -27 25 -26 23 13 -52 23 -43 39 -81 37 -86 -6 -9 -76 -1 -76 9
0 4 7 11 16 14 8 3 12 10 9 16 -4 6 -12 5 -21 -5 -9 -8 -19 -15 -24 -15 -5 0
-16 -7 -25 -16 -15 -15 -18 -15 -38 2 -22 19 -22 19 -4 -2 26 -31 21 -41 -8
-14 -14 13 -25 18 -25 12 0 -6 14 -21 30 -34 17 -12 30 -31 30 -42 0 -26 34
-101 49 -110 7 -5 9 0 6 11 -3 10 2 3 10 -15 14 -30 94 -92 119 -92 5 0 -11
13 -36 29 -55 35 -71 61 -66 107 l4 33 -20 -21 c-19 -20 -20 -20 -33 -2 -14
19 -18 94 -5 94 17 0 52 -32 52 -48 0 -14 2 -14 9 -3 5 8 16 11 25 8 11 -4 16
-1 16 10 0 9 7 24 16 34 9 10 19 38 21 62 5 43 6 43 57 55 28 7 65 12 81 12
l30 0 -25 19 c-13 11 -29 19 -35 18 -5 -1 -9 8 -7 20 5 33 -15 36 -21 3z"/>
<path d="M4591 1512 c-1 -15 26 -82 33 -82 3 0 -1 15 -8 33 -7 17 -16 39 -19
47 -3 10 -6 10 -6 2z"/>
<path d="M3961 1495 c0 -5 6 -21 14 -35 8 -14 14 -20 14 -15 0 6 -6 21 -14 35
-8 14 -14 21 -14 15z"/>
<path d="M5065 1490 c4 -8 16 -24 26 -36 11 -11 28 -38 39 -60 10 -21 19 -33
20 -26 0 22 -37 86 -66 112 -15 14 -24 18 -19 10z"/>
<path d="M10272 1418 c-22 -29 -53 -65 -69 -80 -44 -41 -219 -137 -318 -174
-107 -39 -97 -45 13 -8 173 60 315 157 394 272 40 59 29 53 -20 -10z"/>
<path d="M5152 1330 c0 -14 2 -19 5 -12 2 6 2 18 0 25 -3 6 -5 1 -5 -13z"/>
<path d="M4751 1264 c0 -11 3 -14 6 -6 3 7 2 16 -1 19 -3 4 -6 -2 -5 -13z"/>
<path d="M5149 1258 c0 -13 -3 -17 -6 -10 -6 15 -23 16 -23 1 0 -6 -10 -19
-22 -29 l-23 -18 29 5 c17 4 27 2 23 -3 -3 -6 2 -10 12 -10 14 0 18 10 20 43
1 24 -1 43 -4 43 -3 0 -5 -10 -6 -22z"/>
<path d="M4980 1196 c21 -23 23 -30 12 -47 -7 -11 -10 -24 -7 -29 3 -5 -4 -12
-16 -15 -19 -6 -14 -10 27 -25 56 -19 146 -32 138 -19 -3 5 -17 9 -32 9 -38 0
-102 19 -102 30 0 6 7 10 16 10 12 0 14 3 6 13 -14 17 -4 57 14 57 25 0 15 17
-13 23 -16 3 -37 9 -48 13 -18 6 -17 4 5 -20z"/>
<path d="M5160 1145 c-7 -21 -5 -94 3 -86 5 5 7 28 4 52 -2 24 -5 40 -7 34z"/>
<path d="M10793 1133 c9 -2 23 -2 30 0 6 3 -1 5 -18 5 -16 0 -22 -2 -12 -5z"/>
<path d="M11233 1133 c32 -2 81 -2 110 0 29 2 3 3 -58 3 -60 0 -84 -1 -52 -3z"/>
<path d="M11538 1133 c7 -3 16 -2 19 1 4 3 -2 6 -13 5 -11 0 -14 -3 -6 -6z"/>
<path d="M5130 1090 c0 -5 5 -10 11 -10 5 0 7 5 4 10 -3 6 -8 10 -11 10 -2 0
-4 -4 -4 -10z"/>
</g>
</svg>
